<?xml-stylesheet type="text/css" href="../css/main.css"?>
<svg xmlns="http://www.w3.org/2000/svg" id="feather-svg" viewBox="0 0 300 300">
    <a href="#">
        <path fill="#FF9900" d="M251.8,17.9c0,0-14.5,4.9-37.3,6c-22.8,1.1-40.3,36.1-37.6,82.4c0,0-7.9-32.7,0.9-57.8
				c0,0-10.1,19.1-12.4,50.6c1.8,21.2,10.1,35.2,13.7,40.4C230.5,75.4,251.8,17.9,251.8,17.9z" class="feather-piece f-yel-ora"/>
        <path fill="#CC0000" d="M145.5,96.9c-13.3,39.4-4.2,71.9-1,81.2c8.8-8.9,17-17.9,24.6-26.8c-4.3-19.7-4.9-37.4-3.8-52.3
				c-1.1-12.4,0.1-27.4,5.8-44.4c0,0-20.5,13-30.2,46.9C143.5,98.6,145.5,96.9,145.5,96.9z" class="feather-piece f-red"/>
        <path fill="#FF6600" d="M169.1,151.3c3.4-4,6.7-8,9.9-11.9c-3.6-5.2-11.9-19.2-13.7-40.4C164.2,114,164.9,131.6,169.1,151.3z" class="feather-piece f-ora"/>
        <path fill="#FFCC33" d="M140.5,182.1c-7.3-34.7-5.3-61.1,0.3-80.5c-5.1,5.5-12.8,15.1-14.2,24.4c0,0,2.1-11.7-3.8-22.4
				c0,0-5.1,22.6-10,36.5c-4.9,13.9-1.7,40.8-1.7,40.8s-5.5-12.2,0-44.6c0,0-4,7.8-7.9,18.8c-0.3,26,8.8,41.3,14.4,48.3
				C125.7,196.3,133.3,189.2,140.5,182.1z" class="feather-piece f-yel"/>
        <path fill="#FF9900" d="M140.5,182.1c1.3-1.3,2.7-2.6,4-4c-3.2-9.3-12.3-41.8,1-81.2c0,0-2,1.8-4.6,4.6
				C135.3,121,133.2,147.3,140.5,182.1z" class="feather-piece f-yel-ora"/>
        <path fill="#FF6600" d="M103.2,154.9c0-4.1,0.3-8.5,0.9-13.2c0,0-8.5,15.4-13.7,21.3c-5.1,6-8,21-3.1,37.3c0,0-8.4-5.5-4.6-33.1
				c0,0-11.7,15.6-13.9,50.4c-0.7,11.8-2.6,19.8-4.7,25.3c14.1-8.9,27.2-18.3,39.5-28.2C90.1,201,96.6,173.5,103.2,154.9z" class="feather-piece f-ora"/>
        <path fill="#FF9900" d="M103.7,214.8c4.8-3.8,9.4-7.7,13.9-11.6c-5.6-7-14.7-22.3-14.4-48.3C96.6,173.5,90.1,201,103.7,214.8z" class="feather-piece f-yel-ora"/>
        <path fill="#FF9900" d="M269.4,90.2c0,0-1.8,10.5-8.2,24c15.7-18,16.3-35.5,16.3-35.5c-20.5,23.7-53.9,27.2-53.9,27.2
				c76-21.4,49.5-57,41.2-65.5c-8.3-8.5-13-22.4-13-22.4s-12.9,43.6-50.8,98.9C216.9,116.5,247.3,112.8,269.4,90.2z" class="feather-piece f-yel-ora"/>
        <path fill="#CC0000" d="M213.4,162.8c25.8-11.6,40.2-32.4,47.9-48.7c-13.8,15.8-39.2,32-86.1,37.1c-10.4,12.7-22.2,25.6-35.3,38.5
				c6.1,3.8,21.2,11.7,40.8,12c39.1-5.9,55.5-29.6,55.5-29.6c-39.1,18.8-65,1.3-65,1.3c49.3,21.2,77.5-18.5,77.5-18.5
				C232.3,166.2,213.4,162.8,213.4,162.8z" class="feather-piece f-red"/>
        <path fill="#FF6600" d="M201,116.7c-7.6,11.1-16.2,22.7-25.9,34.5c46.9-5.1,72.3-21.3,86.1-37.1c6.3-13.5,8.2-24,8.2-24
				C247.3,112.8,216.9,116.5,201,116.7z" class="feather-piece f-ora"/>
        <path fill="#FFCC33" d="M129.7,199.4c-0.3,0.3-0.6,0.5-0.9,0.8c4.3,5.5,18,15.3,60.9,13.6c0,0-3.1,4.7-9,10.1
				c39.2-9.7,48.7-39,48.7-39c-17.4,13-34.3,17.1-48.8,16.8C166.6,203.8,149.8,203.7,129.7,199.4z" class="feather-piece f-yel"/>
        <path fill="#FFFFFF" d="M128.8,200.2c0.3-0.3,0.6-0.5,0.9-0.8c-0.6-0.1-1.1-0.3-1.7-0.4C128.2,199.4,128.5,199.8,128.8,200.2z"/>
        <path fill="#FF9900" d="M129.7,199.4c20.1,4.3,37,4.5,50.9,2.3c-19.6-0.3-34.7-8.3-40.8-12C136.6,193,133.2,196.2,129.7,199.4z" class="feather-piece f-yel-ora"/>
        <path fill="#FF6600" d="M105.8,220.1c-27.3,22.2-59.3,43.4-96.6,61.8c12.3,1.7,28.5-9,38.7-15.4s32-22,47.8-16.2
				c15.7,5.8,32.7,1.1,32.7,1.1c-14.1-1.5-24.3-10-24.3-10c29.9,12.8,36.8,6.4,36.8,6.4c-22.8-3.8-21.9-11.3-21.9-11.3
				c29.2,10.9,50.5-2.2,61.7-12.5C162.6,228.4,138.4,228.7,105.8,220.1z" class="feather-piece f-ora"/>
        <path fill="#FF9900" d="M189.7,213.8c-42.8,1.7-56.6-8.2-60.9-13.6c-7.3,6.7-14.9,13.3-23,19.9c32.5,8.6,56.8,8.3,74.9,3.8
				C186.6,218.5,189.7,213.8,189.7,213.8z" class="feather-piece f-yel-ora"/>
        <path fill="#FF6600" d="M244.7,147.7c0,0,16.2-12.8,24.2-12C268.9,135.7,274.8,146,244.7,147.7z" class="feather-piece f-ora"/>
        <path fill="#FF6600" d="M202.5,224.8c0,0,19.3-11.6,35.8-28.4C238.3,196.4,223.3,219.1,202.5,224.8z" class="feather-piece f-ora"/>
        <path fill="#FF6600" d="M173.5,46.3c0,0-0.2-7.3-4.5-9.8C169,36.5,167.1,50.8,173.5,46.3z" class="feather-piece f-ora"/>
        <path fill="#FF6600" d="M93.9,114.5c0,0-0.6,11.2-4.8,19.4c-4.2,8.2-7.1,20-2.8,23.2c0,0-1.7-10.8,2.7-17.3s7.3-2.8,11.9-5.9
				c0,0-8.6,0.7-7.3-3.9c1.3-4.3,1.9-13.6,0.1-15.9" class="feather-piece f-ora"/>
        <path fill="#FF6600" d="M143.4,243.2c0,0,14.5,5.1,35.6-4.2c0,0-8.1,6.1-12.9,6.9c0,0,7.9,4.3,11.2,3.3
				C177.3,249.1,169.6,251.5,143.4,243.2z" class="feather-piece f-ora"/>
        <path fill="#FF6600" d="M279.3,69.4c0,0,11.1-14.1,3.6-23.7C282.9,45.7,302.8,52.1,279.3,69.4z" class="feather-piece f-ora"/>
        <path fill="#CC0000" d="M183.1,45.7c0,0-0.4-17.1,11.5-22.2C194.6,23.5,183.3,21.5,183.1,45.7z" class="feather-piece f-red"/>
        <path fill="#CC0000" d="M129.7,108c0,0,0.2-6.8,4.7-11.1c4.5-4.3,3.8-9,2.8-11.1c-1.1-2.1-1.1-2.1-1.1-2.1S123.5,97.3,129.7,108z" class="feather-piece f-red"/>
        <path fill="#CC0000" d="M238.3,168.6c0,0,11.9-2.4,14.9-7.7C253.2,160.9,251.8,169.1,238.3,168.6z" class="feather-piece f-red"/>
    </a>
</svg>
