<?xml-stylesheet type="text/css" href="../css/main.css"?>
<svg xmlns="http://www.w3.org/2000/svg" id="record_player-svg" viewBox="0 0 300 300">
    <g>
        <g id="rec-border">
            <path fill="#231F20" d="M272.2,38.7c7.6,0,13.7,6.2,13.7,13.7v195.2c0,7.6-6.2,13.7-13.7,13.7H27.8c-7.6,0-13.7-6.2-13.7-13.7
			V52.4c0-7.6,6.2-13.7,13.7-13.7H272.2 M272.2,29.7H27.8C15.2,29.7,5,39.9,5,52.4v195.2c0,12.5,10.2,22.8,22.8,22.8h244.5
			c12.5,0,22.8-10.2,22.8-22.8V52.4C295,39.9,284.8,29.7,272.2,29.7L272.2,29.7z"/>
        </g>
        <g id="record">
            <g>
                <path fill="#231F20" d="M125.7,251.1c-55.7,0-101-45.3-101-101c0-55.7,45.3-101,101-101s101,45.3,101,101
								C226.6,205.9,181.3,251.1,125.7,251.1z M125.7,57.8c-50.9,0-92.4,41.4-92.4,92.4s41.4,92.4,92.4,92.4c50.9,0,92.4-41.4,92.4-92.4
								S176.6,57.8,125.7,57.8z"/>
            </g>
            <g>
                <path fill="#231F20" d="M125.7,232c-2.5,0-4.5-2-4.5-4.5c0-2.5,2-4.5,4.5-4.5c40.2,0,72.8-32.7,72.8-72.8c0-2.5,2-4.5,4.5-4.5
								c2.5,0,4.5,2,4.5,4.5C207.5,195.3,170.8,232,125.7,232z"/>
            </g>
            <g>
                <path fill="#231F20" d="M67.7,154.7c-2.5,0-4.5-2-4.5-4.5c0-34.5,28-62.5,62.5-62.5c2.5,0,4.5,2,4.5,4.5c0,2.5-2,4.5-4.5,4.5
								c-29.5,0-53.5,24-53.5,53.5C72.2,152.7,70.2,154.7,67.7,154.7z"/>
            </g>
            <g>
                <path fill="#231F20" d="M125.7,212.7c-2.5,0-4.5-2-4.5-4.5c0-2.5,2-4.5,4.5-4.5c29.5,0,53.5-24,53.5-53.5c0-2.5,2-4.5,4.5-4.5
								c2.5,0,4.5,2,4.5,4.5C188.2,184.6,160.1,212.7,125.7,212.7z"/>
            </g>
            <g>
                <path fill="#231F20" d="M125.7,193.3c-23.8,0-43.2-19.4-43.2-43.2c0-23.8,19.4-43.2,43.2-43.2c23.8,0,43.2,19.4,43.2,43.2
								C168.8,174,149.5,193.3,125.7,193.3z M125.7,116c-18.8,0-34.2,15.3-34.2,34.2s15.3,34.2,34.2,34.2c18.8,0,34.2-15.3,34.2-34.2
								S144.5,116,125.7,116z"/>
            </g>
            <g>
                <path fill="#231F20" d="M125.7,162.4c-6.8,0-12.2-5.5-12.2-12.2c0-6.8,5.5-12.2,12.2-12.2s12.2,5.5,12.2,12.2
								C137.9,156.9,132.4,162.4,125.7,162.4z M125.7,146.9c-1.8,0-3.2,1.4-3.2,3.2c0,1.8,1.4,3.2,3.2,3.2s3.2-1.4,3.2-3.2
								C128.9,148.4,127.4,146.9,125.7,146.9z"/>
            </g>
            <g>
                <path fill="#231F20" d="M78.1,93.7c-1.3,0-2.7-0.6-3.6-1.7c-1.5-2-1.2-4.8,0.8-6.3c14.5-11.4,31.9-17.3,50.4-17.3
								c2.5,0,4.5,2,4.5,4.5c0,2.5-2,4.5-4.5,4.5c-16.4,0-31.9,5.3-44.8,15.4C80,93.4,79,93.7,78.1,93.7z"/>
            </g>
            <g>
                <path fill="#231F20" d="M48.3,154.7c-2.5,0-4.5-2-4.5-4.5c0-18.5,6-35.9,17.3-50.4c1.5-2,4.4-2.3,6.3-0.8c2,1.5,2.3,4.4,0.8,6.3
								c-10.1,12.9-15.4,28.4-15.4,44.8C52.8,152.7,50.8,154.7,48.3,154.7z"/>
            </g>
        </g>
        <path id="rec-needle" fill="#231F20" d="M271.1,52.1h-29.6c-2.8,0-5,2.3-5,5v29.6c0,2.8,2.3,5,5,5h10.3v83.4l-12.5,30.9l-3-1.2
		c-1.4-0.6-3-0.6-4.4,0c-1.4,0.6-2.5,1.7-3.1,3.2l-11.6,28.7c-2.8,6.9,0.6,14.8,7.5,17.6c1.6,0.7,3.4,1,5.1,1c1.8,0,3.6-0.4,5.3-1.1
		c3.3-1.4,5.9-4,7.3-7.4l11.6-28.7c0.6-1.4,0.6-3,0-4.4c-0.6-1.4-1.7-2.5-3.2-3.1l-3-1.2l12.8-31.7c0.2-0.5,0.3-1.1,0.3-1.7V91.9
		h10.3c2.8,0,5-2.3,5-5V57.2C276.2,54.4,273.9,52.1,271.1,52.1z M233.9,243.5c-0.5,1.1-1.3,2-2.4,2.5c-1.1,0.5-2.3,0.5-3.5,0h0
		c-2.3-0.9-3.4-3.6-2.5-5.9l10.4-25.7l8.4,3.4L233.9,243.5z M268.7,84.3h-24.7V59.6h24.7V84.3z"/>
    </g>
</svg>
