<svg xmlns="http://www.w3.org/2000/svg" viewBox="0 0 300 300">
<g>
	<g>
		<path fill="#231F20" d="M150,20.3c34.7,0,67.2,13.5,91.7,38s38,57.1,38,91.7s-13.5,67.2-38,91.7s-57.1,38-91.7,38
			s-67.2-13.5-91.7-38s-38-57.1-38-91.7s13.5-67.2,38-91.7S115.3,20.3,150,20.3 M150,5C69.9,5,5,69.9,5,150s64.9,145,145,145
			s145-64.9,145-145S230.1,5,150,5L150,5z"/>
	</g>
	<polygon fill="#231F20" points="210.2,143.4 224.4,143.4 226.5,143.4 150,225.7 73.5,143.4 75.6,143.4 89.8,143.4 75.6,128.1 
		38.4,128.1 150,248.1 261.6,128.1 224.4,128.1 	"/>
	<path fill="#231F20" d="M38.4,88.1l37.2,40l14.2,15.3l60.2,64.7l60.2-64.7l14.2-15.3l37.2-40H38.4z M203.5,128.1l-14.2,15.3
		L150,185.7l-39.3-42.3l-14.2-15.3l-23-24.7h153L203.5,128.1z"/>
</g>
</svg>
