<?xml-stylesheet type="text/css" href="../css/main.css"?>
<svg xmlns="http://www.w3.org/2000/svg" viewBox="0 0 300 300">
    <g>
        <path d="M81.4,185.6c0.4,0.2,0.5,0.3,0.7,0.4c0.5-0.3,1-0.7,1.6-1c0.5,0.9,1,1.8,0.9,2.9c-0.1,2.4,0,4.8,0,7.1c0,0.6-0.1,1-0.7,1.2
		c0.2,0.4,0.5,0.7,0.6,1.1c0.1,0.4,0,0.9,0,1.3c0,8.6,0,17.2,0,25.9c0,0.6-0.1,1.2-0.1,1.8c0,0.2-0.1,0.3,0,0.5
		c0.4,2.9,0.1,5.8,0.2,8.7c0,0.3,0,0.7,0,1.1c-0.4,0.1-0.7,0.1-1,0.1c-1.9,0-3.7,0-5.6,0c-2.9,0-5.8,0-8.7,0c-0.8,0-1.3-0.3-1.7-0.9
		c-5.4-8.3-10.9-16.7-16.3-25c-0.2-0.2-0.3-0.5-0.5-0.7c-0.3-0.4-0.5-0.8,0-1.5c-0.6,0.1-1,0-1.2-0.6c0.2-0.3,0.5-0.6,0.7-0.9
		c0.4-0.5,0.4-0.9-0.3-1.4c-0.1,0.5-0.3,0.9-0.4,1.3c-0.9-0.1-1.9-1.1-1.9-1.9c0.1-0.7-0.4-0.9-0.7-1.3c-0.4,0.2-0.4,0.5-0.3,0.7
		c0.2,1.2,0.2,2.3-0.1,3.5c0,0.1,0,0.3,0,0.5c0.1,0.7,0.2,1.5,0.2,2.2c0,2.8,0,5.6,0,8.5c0,0.5-0.2,1-0.3,1.5c0,0.2,0,0.4,0,0.5
		c0.1,0.6,0.3,1.2,0.3,1.9c0,3.3-0.1,6.6-0.1,9.9c0,0.9,0.1,1.8,0.1,2.8c0,0.8-0.1,1-0.9,1c-4.3,0-8.6,0-12.8,0
		c-0.2,0-0.3,0-0.6-0.1c-0.3-2.9-0.3-5.7-0.1-8.7c0.4,0.1,0.7,0.1,1.3,0.2c-0.3-0.4-0.4-0.7-0.6-0.8c-0.7-0.6-0.8-1.3-0.8-2.1
		c0-2.7,0-5.5,0-8.2c0-4.3-0.1-8.6,0-12.9c0-2-0.1-4,0-6c0-2,0-3.9,0-5.9c0-2,0-4,0-6c0-0.4,0-0.8,0.1-1.3c5.7,0,11.2,0,16.9,0
		c-0.1,0.3-0.3,0.6-0.4,0.9c1.2,0.2,1.9,1.1,2.6,2.1c3.1,4.8,6.2,9.7,9.2,14.5c2.9,4.5,5.8,9.1,8.7,13.6c0.2,0.3,0.4,0.6,0.5,0.8
		c0.1,0,0.1,0,0.2-0.1c0-0.3,0-0.6,0-0.9c0-5.5,0-11.1,0-16.6c0-1.2,0.1-2.5,0.2-3.7c0-0.9-0.1-1.8-0.1-2.6c0-1-0.1-2-0.1-3
		c0-0.2,0.2-0.4,0.3-0.5c0.5-0.5,0.4-0.6,0.2-1.3c-0.2-0.6-0.1-1.2-0.2-1.9c0-0.1,0.1-0.2,0.2-0.3c0.1-0.1,0.3-0.1,0.4-0.3
		c0.5-0.9,1.3-0.8,2.1-0.8c2.5,0,4.9,0,7.4,0.1c0.2,0,0.3,0.1,0.8,0.2c-0.4,0.3-0.6,0.5-0.8,0.6c-0.4,0.2-0.8,0.3-1.2,0.4
		c-0.6,0.2-1.1,0.6-1.4,1.2c-0.1,0.3-0.4,0.5-0.6,0.8c-0.1,0.2-0.2,0.4-0.4,0.8c0.3-0.2,0.4-0.2,0.5-0.3c0.8-0.8,1.7-1.3,2.7-1.7
		C80.9,186.8,81.4,186.5,81.4,185.6z M34.6,210.1c0.6-0.1,1-0.1,1.5-0.2c0.4,0,0.8-0.2,0.8-0.5c0-0.3-0.4-0.6-0.6-0.8
		c0-0.1-0.2,0-0.3-0.1c-0.4-0.1-0.9-0.2-1.3-0.3C34.3,209.2,34.3,209.5,34.6,210.1z M35.1,225.4c0.1,0,0.1,0,0.2,0
		c0.2-0.4,0.4-1,0.7-1.3c0.4-0.3,1-0.3,1.6-0.5c-0.5-0.5-0.9-0.8-1.4-1.3c-0.5,0.5-0.9,1-1.3,1.4C35,224.4,35,224.9,35.1,225.4z
		 M77.6,190.5c-0.6,0.8-0.6,0.9,0.1,2c0.9-0.4,1-0.6,0.4-1.4C77.9,191,77.7,190.8,77.6,190.5z M75.2,215.5c-0.6,0.4-0.8,0.7-0.6,1.3
		c0.2,0.4,0.4,0.8,1,0.6C75.5,216.8,75.3,216.2,75.2,215.5z M72.6,231c0.3-0.5,0.9-0.7,1-1.4c-0.3,0.1-0.5,0.1-0.7,0.2
		c-0.1,0-0.3,0.1-0.4,0.2C71.9,230.3,71.9,230.5,72.6,231z M53.7,209.5c0.9-0.9,1-1.1,0.9-1.8C54,208,53.7,208.5,53.7,209.5z
		 M71.4,199c-0.4,0.3-0.7,0.6-1,0.8c0,0.1,0,0.2,0,0.2c0.3,0.1,0.6,0.3,0.8,0.2C71.6,200,71.7,199.6,71.4,199z M73.6,194.6
		c-0.2-0.6-0.7-0.8-1.4-0.9c0.1,0.3,0,0.6,0.1,0.6C72.7,194.4,73,194.9,73.6,194.6z M81.7,196.6c1,0.2,1.4,0,1.7-0.9
		C83.1,196.6,82,195.7,81.7,196.6z M44.6,209.4c0.4-0.7,0.4-0.7-0.5-1.2c-0.1,0.1-0.2,0.3-0.4,0.4C44,208.9,44.3,209.1,44.6,209.4z
		 M43.1,205.5c-0.2-0.2-0.5-0.3-0.8-0.5c0,0.5,0,0.8,0,1.1C42.8,206.2,43,205.9,43.1,205.5z M79.4,217.8c-1.3-0.2-1.4-0.1-1,0.8
		C78.7,218.3,79,218.1,79.4,217.8z M53.1,211.5c0.2,0.1,0.4,0.3,0.5,0.2c0.4-0.2,0.5-0.6,0.7-1.1C53.6,210.7,53.3,211.1,53.1,211.5z
		 M41.7,228.6c-0.3,0.4-0.5,0.7-0.7,1c0.3,0.1,0.5,0.1,0.9,0.2C41.8,229.3,41.8,229.1,41.7,228.6z M74.4,229c0.1-0.6,0.1-0.6-0.2-1
		C73.9,228.4,73.8,228.7,74.4,229z M75.3,223.5c0.5,0.6,0.5,0.6,1,0C76,223.2,75.7,223.3,75.3,223.5z M45.4,210
		c0.4,0.2,0.6,0.4,0.9,0.5C46.2,209.8,46.2,209.8,45.4,210z M73.9,192.1c-0.3,0.3-0.4,0.6-0.1,1C74.2,192.8,74.4,192.6,73.9,192.1z
		 M36.4,229.3c0-0.1,0-0.2-0.1-0.3c-0.3,0-0.5,0.1-0.9,0.1c0.2,0.3,0.4,0.5,0.5,0.7C36.2,229.6,36.3,229.5,36.4,229.3z M41.5,205.3
		c-0.4,0.7-0.4,0.7,0.2,1C41.6,206,41.6,205.8,41.5,205.3z M72.8,197.3c0.2,0.4,0.3,0.6,0.6,0.3c0.1-0.1,0.1-0.2,0.1-0.4
		C73.3,197.3,73.1,197.3,72.8,197.3z M82.1,207.3c0,0.3-0.1,0.5-0.1,0.7c0.1,0,0.4,0.1,0.4,0C82.7,207.7,82.5,207.5,82.1,207.3z
		 M53.5,198.6c0.1,0,0.2,0,0.3,0c0-0.3,0.2-0.7-0.4-0.9C53.5,198,53.5,198.3,53.5,198.6z M82.7,187.6c-0.1,0.1-0.3,0.3-0.3,0.3
		c0,0.2,0.2,0.3,0.3,0.4c0.1-0.1,0.3-0.2,0.2-0.2C82.9,188,82.8,187.8,82.7,187.6z M48.3,190.1c-0.1,0-0.2,0-0.3,0
		c0,0.3,0,0.5,0,0.8c0.1,0,0.1,0,0.2,0C48.3,190.7,48.3,190.4,48.3,190.1z M56,204.7c-0.4,0.2-0.6,0.4-0.3,0.7c0,0,0.1,0,0.2,0.1
		C55.9,205.2,56,205,56,204.7z M58.9,207.8c-0.1,0.2-0.2,0.3-0.2,0.4c0,0.1,0.1,0.2,0.2,0.3c0.1,0,0.2-0.1,0.2-0.1
		C59.1,208.2,59,208,58.9,207.8z M41.1,200.9c0,0,0.1-0.1,0.1-0.1c-0.1-0.1-0.3-0.2-0.4-0.3c0,0.1-0.1,0.1-0.1,0.2
		C40.8,200.7,41,200.8,41.1,200.9z M75.8,213.8c-0.2-0.1-0.2-0.2-0.3-0.3c0,0-0.2,0.1-0.1,0.2c0,0.1,0.1,0.2,0.2,0.2
		C75.6,213.9,75.7,213.8,75.8,213.8z M42.4,201.6c0.1-0.1,0.2-0.2,0.2-0.2c0-0.1-0.1-0.1-0.2-0.2c0,0.1-0.1,0.1-0.1,0.2
		C42.3,201.4,42.3,201.5,42.4,201.6z M38.9,209.4c-0.1,0-0.2,0-0.2-0.1c0,0.2-0.1,0.4-0.1,0.6c0.1,0,0.1,0,0.2,0.1
		C38.7,209.8,38.8,209.6,38.9,209.4z"/>
        <path d="M221.3,218.6c-0.4-0.1-0.6-0.2-0.8-0.2c-0.4,0.6,0.2,0.7,0.5,0.9c0,0.6,0,1.2-0.7,1.6c0.4,0.7,0.2,1.3,0,2
		c-0.2,0.6-0.4,1.3-0.7,1.9c-2.4,6-6.8,9.7-13.1,11.2c-2.6,0.6-5.2,0.9-7.8,0.9c-9.7,0-19.5,0-29.2,0c-0.3,0-0.6,0-0.9-0.1
		c0-17.2,0-34.4,0-51.6c0.3,0,0.6-0.1,0.8-0.1c10.5,0,21,0,31.6,0c2.4,0,4.8,0.3,7.1,1.1c5.6,1.7,9.3,5.5,11.4,10.9
		c0.8,2,1.3,4.2,1.6,6.3c0.4,2.5,0.7,5,0.6,7.5C221.7,213.4,221.4,215.9,221.3,218.6z M183.4,225.1c0.1,0,0.3,0.1,0.4,0.1
		c4.1,0,8.2,0.1,12.3,0c4.6-0.2,7.6-2.5,9.1-6.9c0.5-1.4,0.8-2.9,0.9-4.4c0.2-1.8,0.1-3.7,0-5.5c-0.1-1.8-0.4-3.4-1.1-5.1
		c-0.7-1.8-1.8-3.3-3.4-4.5c-1.7-1.3-3.8-1.5-5.7-2.1c-0.7,0.4-1.4,0-2,0c-3.2,0-6.4,0-9.6,0c-0.3,0-0.7,0.1-1,0.1
		C183.1,199.5,183.1,223.7,183.4,225.1z M210.4,231.4c0.3,0.1,0.5,0.3,0.7,0.3c0.2,0,0.5-0.1,0.5-0.2c-0.1-0.4-0.1-0.7-0.3-1
		c-0.1-0.3-0.5-0.3-0.7-0.1c-0.3,0.2-0.7,0.4-1,0.7c-0.6,0.5-0.7,0.7-0.3,1.7C209.9,232.5,209.9,231.7,210.4,231.4z M173,223.5
		c0-0.7-0.3-1.1-0.8-1.4C171.8,223.2,172,223.4,173,223.5z M192.4,235.2c-0.5-0.5-0.9-0.8-1.2-1.1c-0.2,0.4-0.2,0.4,0.1,0.8
		c0.2,0.3,0.4,0.5,0.7,0.6C192,235.6,192.3,235.3,192.4,235.2z M170.7,205.5c0.2,0.2,0.3,0.4,0.5,0.6c0.1-0.2,0.2-0.4,0.3-0.6
		C171.2,205.4,171,205.4,170.7,205.5z"/>
        <path d="M89,221.1c1.1-0.4,15.5-0.5,17.4-0.1c0.1,0.5,0.3,0.9,0.4,1.4c0.4,1.8,1.5,3,3.1,3.7c1.4,0.6,2.9,0.9,4.4,1
		c1.6,0,3.2,0,4.8-0.2c1-0.1,1.9-0.6,2.8-1c2.3-1.2,2.4-3.9,2-5.5c-0.2-0.8-0.8-1.4-1.6-1.8c-1.1-0.4-2.3-0.9-3.4-1.1
		c-2.9-0.6-5.8-1.1-8.7-1.6c-0.4-0.1-0.7-0.3-1-0.5c-0.6,0-1.1,0.2-1.6,0.1c-2.3-0.4-4.6-0.8-6.8-1.3c-1.2-0.3-2.4-0.7-3.5-1.2
		c-3.5-1.5-5.8-4.2-6.9-7.9c-1-3.3-1-6.7,0-10c0.9-3.2,2.9-5.7,5.7-7.6c3-2,6.4-3.1,9.9-3.5c2.5-0.3,5.1-0.4,7.6-0.5
		c0.3,0,0.6,0,1,0c0,0.3,0,0.6,0,0.9c0.6,0.1,0.6-0.6,1-0.8c1.7,0.1,3.5,0.3,5.3,0.5c2.7,0.3,5.4,0.9,8,1.9c1.1,0.4,2.1,0.9,3.1,1.5
		c4.6,2.6,6.9,6.7,7.5,11.8c0,0.4,0,0.7,0,1.2c-0.4,0-0.8,0.1-1.1,0.1c-4.8,0-9.6,0-14.5,0c-0.2,0-0.4,0-0.7,0
		c-0.3,0-0.5-0.2-0.6-0.5c0-0.2-0.1-0.4-0.1-0.6c-0.4-1.9-1.5-3.2-3.3-3.9c-1.1-0.5-2.3-0.7-3.5-0.9c-1.7-0.4-3.4,0-5.1,0.1
		c-1.1,0-2.1,0.4-3.1,1c-1.9,1.1-2.4,3-2,4.9c0.2,0.8,0.7,1.2,1.4,1.6c1.1,0.6,2.4,0.7,3.6,0.9c1.7,0.3,3.5,0.6,5.3,1
		c0,0.2,0,0.4-0.1,0.7c0.2,0,0.3,0,0.4-0.1c0.6-0.4,1.3-0.4,2-0.2c3.9,0.8,7.9,1.5,11.8,2.3c1.6,0.3,3.2,1,4.7,1.8
		c3.6,2,5.8,4.9,6.4,9c0.4,2.7,0.4,5.4-0.2,8c-0.9,3.8-3,6.8-6.3,8.9c-2.8,1.8-5.9,2.9-9.2,3.4c-1.5,0.2-2.9,0.4-4.4,0.6
		c-3.2,0.4-6.5,0.3-9.7,0.1c-3.4-0.1-6.9-0.5-10.2-1.6c-1.1-0.3-2.1-0.7-3.1-1.2c-4.5-2-7.2-5.4-8.5-10.1
		C89.2,224,88.9,222.6,89,221.1z M137.3,213.7c0.1-0.4,0.2-0.7,0.3-1c-0.8-0.1-1.1-0.7-1.4-1.3c-0.1-0.1-0.1-0.3-0.2-0.4
		c-0.4-0.5-0.7-0.4-1,0.1c-0.1,0.2-0.2,0.4-0.3,0.7c-0.4-0.4-0.8-0.7-1-0.9c-1.2-0.1-2.2-0.1-3.5-0.2c0.8,0.7,1.4,1.3,1.6,2.2
		c0,0.3-0.7,0.6-0.1,1c0.6-1.1,1.7-1.4,2.8-1.6C135.5,212,136.6,212.5,137.3,213.7z M109.6,203.9c-0.3,0.4-0.5,0.9-0.8,1.3
		c0.6,0.3,0.9,1.1,1.7,0.7c0.5-0.2,1.1-0.4,1-1.1C110.8,204.6,110.3,204.3,109.6,203.9z M99,195.8c0.5,0.1,0.9,0.2,1.5-0.2
		c-0.2-0.3-0.4-0.5-0.6-0.8C99.4,195.1,99,195.1,99,195.8z M99.2,226.2c0.3-0.2,0.6-0.4,1-0.7C99.4,225.2,99.2,225.3,99.2,226.2z
		 M131.2,234.2c-0.1,0.4-0.1,0.5-0.2,0.7c0.3,0,0.5,0,0.8,0C131.6,234.7,131.5,234.5,131.2,234.2z M129.1,211.6
		c0.1-0.2,0.3-0.3,0.4-0.5C129,210.9,129,211.1,129.1,211.6z M91,199.7c0.1,0,0.2,0,0.3,0c0-0.2,0-0.4,0-0.6c-0.1,0-0.1,0-0.2,0
		C91.1,199.3,91,199.5,91,199.7z M129.3,209.7c-0.4-0.2-0.5-0.3-0.5-0.3c-0.1,0-0.2,0.1-0.3,0.2c0.1,0.1,0.2,0.2,0.3,0.2
		C128.9,209.8,129,209.7,129.3,209.7z"/>
        <path d="M190.3,159c0.4,0,0.8,0,1.2,0c5.1,0,10.1,0,15.2,0c0.2,0,0.4,0,0.7,0c0.3,0,0.5,0.2,0.6,0.5c0,0.2,0.1,0.5,0.1,0.7
		c0.4,2.1,1.6,3.5,3.6,4.2c1,0.3,2.1,0.6,3.1,0.7c2.1,0.2,4.1,0.2,6.2-0.1c1.1-0.2,2.1-0.6,2.9-1.3c1.6-1.3,1.9-3.1,1.5-5
		c-0.2-0.8-0.8-1.4-1.5-1.8c-1.1-0.7-2.3-1-3.6-1.2c-5.5-1-11.1-2-16.6-3c-1.7-0.3-3.4-0.8-5-1.5c-0.3-0.1-0.5-0.3-0.7-0.5
		c0.3,0,0.5,0,0.8-0.1c0.3-0.1,0.6-0.1,0.9-0.2c0.4-0.2,0.6-0.2,1,0c0.2,0.1,0.5,0.1,0.6,0c0.5-0.4,0.9,0.5,1.4,0
		c0.4-0.4,0.9,0,1.3,0.1c1,0.1,2,0,3,0c0.3,0,0.7,0,1,0c0.8,0,1.6,0.1,2.5,0.1c0.2,0,0.5,0,0.6-0.1c0.9-0.5,1.7-0.4,2.6,0.1
		c0.6-0.4,1.1-0.4,1.8,0c0.3,0.2,0.8,0.2,1.2,0.3c-0.4,0.8-0.5,1.5,0.2,2.2c0.2-0.1,0.4-0.2,0.7-0.3c-0.2-0.6-0.3-1.2-0.5-2
		c0.5,0,0.8-0.1,1.2-0.1c0.8-0.1,1.6-0.1,2.4-0.2c0.2,0,0.4,0.1,0.5,0.1c0.7,0,1.4,0,2.1,0c0.3,0,0.6-0.1,0.9,0
		c0.7,0.2,1.3,0.2,2-0.1c0.4-0.1,0.8-0.1,1.3-0.1c0-0.5-0.3-0.4-0.7-0.4c-0.9,0.1-1.7,0.2-2.6,0.1c-1.1-0.1-2.3-0.2-3.4,0
		c-0.2,0-0.4,0-0.6,0c-1.7-0.4-3.5,0-5.2,0c-2.6,0-5.1,0.1-7.7,0c-1.1,0-2.2-0.1-3.3,0c-1.4,0.1-2.8,0-4.2,0c-0.3,0-0.7-0.1-1-0.1
		c-0.5,0-1-0.1-1.4,0c-0.8,0.2-1.5,0-2.1-0.6c-1.8-1.6-3.1-3.6-3.8-5.9c-0.9-3.2-1-6.4-0.2-9.6c0.9-4,3.4-6.8,6.8-8.9
		c2.1-1.3,4.5-2,6.8-2.5c0.8,0.3,1.5-0.3,2.3-0.4c1-0.1,2-0.3,3-0.3c5.6-0.4,11.1-0.1,16.6,1.2c2.1,0.5,4.2,1.3,6.1,2.4
		c4,2.3,6.5,5.8,7.4,10.3c0,0.1,0,0.1,0,0.2c0.1,0.6,0,0.9-0.4,0.9c-0.5,0.1-0.6-0.3-0.7-0.6c-0.1-0.2-0.2-0.4-0.3-0.6
		c-0.5,0.3-0.5,0.3-0.7,1.4c-0.8,0-1.7,0-2.5,0c0,0.1,0,0.1,0,0.2c0.6,0.1,1.2,0.2,1.8,0.3c-0.1,0.8-0.1,0.9-0.7,0.9
		c-4.3,0-8.6,0-12.9,0c0,0-0.1,0-0.2-0.1c-0.1-0.4-0.3-0.8-0.4-1.3c-0.5-1.6-1.5-2.7-2.9-3.4c-1.1-0.5-2.3-0.9-3.5-1
		c-2-0.1-3.9,0-5.9,0.1c-0.8,0.1-1.7,0.4-2.4,0.8c-1.6,0.8-2.5,2.6-2.3,4.4c0.1,0.8,0.6,1.5,1.2,1.8c0.7,0.4,1.5,0.7,2.3,0.9
		c4.3,0.8,8.5,1.6,12.8,2.3c0.9,0.2,1.8,0.3,2.7,0.5c0.6,0.1,1.1,0.2,1.5,0.7c0.4,0.3,0.9,0.6,1.5,0.2c0.3-0.2,0.7-0.2,1-0.1
		c3,0.6,5.8,1.6,8.3,3.4c2.6,2,4,4.7,4.5,7.9c0,0.2,0.1,0.4,0.1,0.7c0.4,2.8,0.1,5.6-0.7,8.4c-1.1,3.4-3.2,6-6.3,8
		c-2,1.3-4.2,2-6.5,2.7c-0.1,0-0.3,0.1-0.4,0c-0.6-0.4-1-0.1-1.4,0.2c-0.4,0.2-0.8,0.3-1.3,0.4c-4.3,0.7-8.7,0.7-13.1,0.6
		c-3.9-0.1-7.8-0.7-11.6-1.9c-2-0.6-3.9-1.6-5.6-3c-2.3-1.9-3.9-4.2-4.7-7.1C190.7,162.8,190.3,161,190.3,159z M226.9,134.3
		c-0.3-0.3-0.4-0.6-0.5-0.6c-0.4,0.1-0.6-0.2-0.8-0.4c-0.3-0.3-0.6-0.6-1-1c-0.4,0.7-0.8,1.2-0.9,2
		C224.7,134.3,225.6,134.3,226.9,134.3z M235.2,134.3c-0.1,0.3-0.3,0.5-0.4,0.8c-0.1,0.2-0.1,0.4-0.2,0.6c0.9,0.6,1.7,0.5,2.2-0.1
		C236.4,135.2,235.9,134.8,235.2,134.3z M236.1,133.7c0.3-0.3,0.5-0.4,0.6-0.6c0.6,0.7,0.6,0.7,1.2,0.5c0.1-1,0-1.1-0.5-1.2
		c-0.6,0-1.1,0-1.8,0C235.8,132.9,235.9,133.2,236.1,133.7z M201,169.7c-0.2,0.7-1.2,0.6-1,1.6c0.7-0.3,1.3-0.6,2-1
		C201.6,170.1,201.4,170,201,169.7z M224.3,128.9c-0.4-1.2-0.5-1.2-1.6-0.9C223.2,129.1,223.2,129.1,224.3,128.9z M208.4,165.2
		c0.6-0.1,1.1-0.2,1.5-0.4c0.1,0,0.2-0.3,0.3-0.4c-0.2-0.1-0.4-0.3-0.5-0.3C209.2,164.3,208.7,164.5,208.4,165.2z M204,161.5
		c-0.5,0.4-0.9,0.9-1,1.6c0.3,0.1,0.5,0.2,0.7,0.2c0.1,0,0.3-0.2,0.3-0.4C204.1,162.4,204,162,204,161.5z M219.1,145.5
		c0.2-0.2,0.4-0.4,0.7-0.6c-1.5-0.6-1.5-0.6-1.7-0.4C218.4,144.8,218.7,145.1,219.1,145.5z M236.9,151.2c-0.6-0.4-1-0.7-1.5-0.9
		c-0.3-0.2-0.4,0-0.4,0.3C235.6,150.8,236.1,151.4,236.9,151.2z M232.1,154.1c-0.3-0.2-0.6-0.5-0.9-0.1c-0.1,0.1,0,0.4,0.1,0.5
		C231.7,154.7,231.9,154.5,232.1,154.1z M230.5,132.4c0.3,0.7,0.3,0.7,0.9,0.3C231.2,132.3,230.9,132.2,230.5,132.4z M235,127.3
		c-0.1,0-0.2,0-0.3,0c0,0.2-0.1,0.3-0.1,0.5c0.1,0,0.3,0.1,0.4,0.1C235,127.7,235,127.5,235,127.3z M204.3,128.8
		c0.5,0.1,0.6-0.1,0.4-0.6C204.5,128.5,204.4,128.7,204.3,128.8z M223,167c0.1-0.2,0.2-0.3,0.2-0.4c-0.1,0-0.2-0.1-0.2-0.1
		c-0.1,0.1-0.2,0.2-0.2,0.3C222.8,166.8,222.9,166.9,223,167z"/>
        <path d="M131.2,157.4c0.4-0.1,0.7-0.1,1-0.3c0.3-0.1,0.5-0.3,0.7-0.6c0.3-0.5,0.5-1.1,0.8-1.7c0.3-0.5,0.2-1-0.1-1.5
		c-0.1-0.2-0.2-0.4-0.3-0.6c-0.6-1-1.1-1.2-2.3-1c-0.2,0-0.3,0.1-0.5,0.1c-0.1-0.2-0.1-0.4-0.1-0.6c-0.2-4.8,0.2-9.5,1.8-14.1
		c2.4-6.8,7.1-11.2,13.8-13.5c3-1,6.1-1.6,9.2-1.8c2.1-0.1,4.2-0.1,6.4-0.1c0.5,0,1,0.1,1.5,0.2c-0.3,1.5-0.2,1.9,1.4,3
		c0.2-0.2,0.5-0.4,0.7-0.6c-0.4-0.3-0.8-0.5-1.2-0.8c0.5-0.5,0.9-0.9,1.4-1.2c0.2-0.2,0.6-0.3,0.9-0.2c2.6,0.4,5.1,0.9,7.5,1.9
		c0.6,0.2,0.9,0.6,0.8,1.2c0,0.2,0,0.5,0,0.8c0.7,0.3,1.3,0.6,2.1,1c0.1-0.5,0.2-0.9,0.2-1.3c0.7,0.1,1.2,0.5,1.7,0.8
		c4.2,2.9,6.8,6.8,8.2,11.6c0.8,2.8,1.3,5.6,1.4,8.5c0,1,0,2,0,3c-1.2,0.2-2.5,0.4-3.8,0.3c-1-0.1-2.1,0-3.1,0c-0.5,0-1,0-1.5,0
		c-0.7-0.1-1.3-0.2-1.9,0.2c0.7,0.5,1.5,0.7,2.4,0.4c0.1,0,0.2,0,0.3,0c2.4,0.4,4.8,0.1,7.2,0.2c0.1,0,0.2,0,0.5,0.1
		c0,0.3,0.1,0.7,0.1,1c-0.2,2.5-0.5,4.9-1.1,7.3c-2.1,7.7-6.8,13-14.4,15.6c-2.7,0.9-5.5,1.4-8.3,1.7c-4.5,0.5-9.1,0.4-13.5-0.4
		c-4.1-0.7-7.9-2.1-11.3-4.5c-4.1-3-6.6-7-8-11.8c-0.2-0.6-0.3-1.2-0.4-1.7C131.2,157.8,131.2,157.6,131.2,157.4z M173.8,164.9
		c-0.8-0.1-1.5-0.1-2.1-0.2c-0.4,0-0.8,0-1.2,0c-1,0-2,0.3-3.1,0.1c-0.9-0.2-1.8,0-2.7-0.1c-0.4,0-0.7-0.1-1.1-0.1
		c0.3-0.3,0.6-0.4,0.9-0.5c2.3-0.9,4.2-2.4,5.5-4.5c1-1.6,1.7-3.3,2-5.1c0.2-0.9,0.3-1.8,0.4-2.6c0.1-0.7,0.4-0.9,1.2-0.9
		c0.2,0,0.4,0,0.6,0c0.5-0.1,0.9-0.2,1.4-0.3c0.5-0.1,1-0.1,1.5-0.6c-1.1,0-2-0.2-2.7,0.2c-0.7-0.1-1.1-0.2-1.7-0.4
		c-0.1-0.5-0.2-1.1-0.2-1.7c-0.1-0.7,0-1.3-0.1-2c-0.2-2.6-0.9-5.1-2.3-7.4c-1.4-2.3-3.4-4-6.1-4.8c-2.9-0.9-5.9-1-8.8-0.2
		c-4,1.1-6.6,3.8-8,7.6c-0.8,2.2-1.1,4.5-1.1,6.9c0,0.5,0,1.1,0,1.7c-0.5-0.1-0.9-0.1-1.2-0.2c-0.5-0.1-0.8,0.1-1.1,0.4
		c-0.3,0.3-0.1,0.6,0,0.9c0.1,0.3,0.3,0.6,0.4,0.9c0.3,0.6,0.3,0.6,1.1,0.3c-0.1-1-0.1-1,0.7-1.3c0,0.2,0.1,0.3,0.1,0.4
		c0.3,2,0.6,4.1,1.4,6c0.3,0.6,0.2,0.7-0.4,1c-0.1,0.1-0.2,0.1-0.3,0.2c0.1,0.1,0.1,0.1,0.1,0.1c0.1,0,0.2,0.1,0.3,0.1
		c0.8-0.1,1.2,0.3,1.6,0.9c1.5,2.2,3.6,3.8,6.3,4.5c0.1,0,0.2,0.1,0.4,0.2c-0.1,0.1-0.1,0.2-0.2,0.4c0.3,0.1,0.6,0.3,1,0.4
		c0-0.3,0-0.5,0.1-0.6c1,0.1,2,0.2,3,0.2c0.2,0.7,0.1,1.3-0.2,1.8c-0.2,0.3-0.3,0.6,0.3,0.8c0.1-0.3,0.4-0.6,0.4-0.9
		c0-0.8,0.5-1,1.1-1.2c0.5-0.1,0.9-0.1,1.4-0.2c0.3,0,0.7,0.1,0.9-0.1c0.5-0.2,1-0.2,1.5-0.1c0.5,0.1,1,0.3,1.6,0.4
		c0.3,0.1,0.7,0.2,1,0.1c0.9-0.4,1.9-0.2,2.8-0.3c0.2,0,0.6-0.1,0.7,0.1c0.6,0.4,1.2,0.4,1.9,0c-0.1,0.8-0.7,1.4-0.4,2
		c1.7,0.6,2.9-0.3,4.3-0.8c0.2-0.1,0.3-0.3,0.4-0.5c0.1-0.4,0.4-0.6,0.8-0.7c0.3-0.1,0.5-0.2,0.7-0.4c0.1-0.1,0.1-0.4,0.1-0.7
		c-1.1,0.6-1.9,0.3-2.6-0.5c-0.3,0.3-0.6,0.4-0.8,0.7c-0.3,0.5-0.4,1-0.6,1.5C173.8,165.7,173.8,165.7,173.8,164.9z M142,138.4
		c0.4,0.5,0.7,0.8,1,1.2c0.1,0.1,0.2,0.2,0.3,0.3c0.2-0.2,0.5-0.3,0.7-0.5c1.1-0.8,1.1-1.1,0.2-2.1c-0.6-0.6-1.2-0.6-1.7,0.1
		C142.4,137.7,142.2,138,142,138.4z M138.1,130.3c-0.3-0.3-0.6-0.5-1-0.7c-0.2,0.3-0.4,0.6-0.7,1c0.7,0.2,1.3,0.6,1.7,0.4
		c0.6-0.2,0.9,0.2,1.3,0.5c0.6-0.5,0.7-0.7,0.1-1C139,130.2,138.6,129.9,138.1,130.3z M143,143.4c0.6-0.2,0.7-0.6,0.6-1.1
		c-0.1-0.2-0.3-0.4-0.5-0.5c-0.4-0.1-0.8,0-1,0.5C142.4,142.7,142.7,143.1,143,143.4z M141,150.2c0.7,0.6,0.8,0.6,1.4-0.1
		C141.9,149.7,141.4,149.8,141,150.2z M157.2,173.5c0.8,0,1.5,0.2,2.1,0C158.7,173.2,158.1,172.4,157.2,173.5z M176.7,156
		c-0.5-0.6-1-0.5-1.5-0.4C175.4,156.3,175.5,156.3,176.7,156z M173.4,156c-0.4-0.2-0.6-0.6-1-0.3c-0.3,0.2-0.3,0.5,0.1,0.9
		C172.8,156.4,173,156.3,173.4,156z M172.1,173.6c1.2,0.1,1.4,0,1.2-0.8C172.9,173,172.6,173.2,172.1,173.6z M151.2,171.6
		c-0.4,0-0.7,0.1-0.8,0.6c0.3,0,0.6,0,1,0C151.3,171.9,151.2,171.8,151.2,171.6z M175.1,158.5c0-0.1,0-0.1,0-0.2c-0.4,0-0.8,0-1.2,0
		c0,0.1,0,0.1,0,0.2C174.3,158.5,174.7,158.5,175.1,158.5z M148.8,172.9c0.4,0,0.7,0,0.9,0c0-0.3-0.1-0.5-0.2-0.9
		C149.3,172.3,149.2,172.5,148.8,172.9z M137,150.4c0.3,0.3,0.6,0.3,0.9,0C137.5,150,137.3,150,137,150.4z M187.1,152.8
		c-0.2,0.3-0.2,0.5,0.2,0.6c0.1,0,0.3-0.1,0.3-0.2C187.6,152.9,187.4,152.8,187.1,152.8z M167.3,173.3c-0.1-0.1-0.1-0.2-0.2-0.3
		c-0.2,0.1-0.4,0.3-0.6,0.4c0,0.1,0.1,0.1,0.1,0.2C166.8,173.5,167,173.4,167.3,173.3z M148.9,165.2c-0.1-0.2-0.2-0.3-0.3-0.5
		c-0.1,0.2-0.2,0.3-0.4,0.6C148.5,165.3,148.7,165.3,148.9,165.2z M135.5,132.3c0.1,0,0.1,0,0.2,0.1c0.1-0.1,0.1-0.1,0.2-0.2
		c0.1-0.2,0.1-0.4-0.2-0.3C135.6,131.9,135.5,132.1,135.5,132.3z M169.8,173.5c0-0.1,0-0.2,0-0.2c-0.2,0-0.4,0-0.6,0
		c0,0.1,0,0.1,0,0.2C169.5,173.5,169.6,173.5,169.8,173.5z M161.4,175.4c0-0.1,0-0.2,0-0.2c-0.2,0-0.4,0-0.5,0c0,0.1,0,0.1,0,0.2
		C161,175.3,161.2,175.3,161.4,175.4z"/>
        <path d="M92.3,144.4c0.3-0.4,0.5-0.7,0.7-1c-0.5-0.3-0.8-0.6-0.5-1.3c0.3,0.2,0.6,0.3,0.9,0.5c0.1-0.2,0.2-0.3,0.2-0.4
		c0.1-0.4,0.4-0.5,0.7-0.5c0.7,0,1.3,0,2,0c0.6,0,1,0.1,1.4,0.6c0.2,0.3,0.5,0.6,0.7,0.9c0.1,0,0.1-0.1,0.2-0.1
		c-0.2-0.4-0.4-0.8-0.6-1.3c0.8-0.1,1.5-0.2,2.3,0c0.3,0.1,0.6,0.4,0.8,0.7c0.2,0.3,0.3,0.6,0.5,0.9c0.5-0.7,0.5-0.7-0.3-1.6
		c1.2-0.2,2.4-0.1,3.6-0.1c1.1,0,2.3-0.3,3.5,0.4c0.5-0.8,1.3-0.2,2-0.5c0-6,0-12,0-18c0.8-0.3,12-0.3,14.8-0.2c0,0,0,0,0.1,0.1
		c0,0,0.1,0,0.1,0.1c0,16.9,0,33.8,0,50.7c0,0.2,0,0.3,0,0.4c-1.3,0.3-13.4,0.4-14.8,0c0-7.1,0-14.2,0-21.2
		c-0.8-0.2-20.9-0.3-22.3-0.1c0,0.5-0.1,1.1-0.1,1.7c0,6.2,0,12.4,0,18.6c0,0.3,0,0.6,0,0.9c-1.3,0.4-9,0.4-9.9,0
		c0.1-0.3,0.2-0.6,0.4-1c-0.5,0.2-0.9,0.3-1.3,0.4c-0.2-0.3-0.5-0.6-0.7-0.9c-0.1,0.7-0.1,0.7,1.3,1.5c-0.6,0.2-3.8,0.3-4.6,0.1
		c0-17,0-34.1,0-51.2c1.2-0.4,12.5-0.5,14.8-0.1c0,0.4,0.1,0.8,0.1,1.3c0,5.2,0,10.5,0,15.7c0,0.4,0,0.7,0,1.2c1.1,0,2.2,0,3.3,0
		c-0.1,0.5-0.2,0.8-0.3,1.1c0.3,0.1,0.7,0.2,1.1,0.3C92.1,143.5,92.2,143.8,92.3,144.4z M121.9,126c-0.1-0.2-0.2-0.4-0.2-0.6
		c-0.2-0.7-0.7-1-1.3-1.3c-0.7-0.2-1.2,0.1-1.6,0.4c-0.4,0.3-0.3,0.7-0.2,1.2c0.1,0.3,0.1,0.7,0.1,1c0.2,0.1,0.3,0.1,0.4,0.2
		c0.9,0.5,1,0.5,1.7-0.2C121.2,126.5,121.5,126.3,121.9,126z M83.3,132.1c0.3,0.3,0.5,0.5,0.8,0.8c0.8-0.9,0.5-1.7-0.5-2.3
		C83.5,131.1,83.4,131.5,83.3,132.1z M118.7,152.9c0.9-0.9,0.9-1.1,0.3-1.7c-0.3,0.4-0.5,0.7-0.8,1.1
		C118.4,152.5,118.5,152.7,118.7,152.9z M79.2,136.8c0.4,0.1,0.6,0.2,0.9,0.3c0.3-0.3,0.5-0.6,0.1-0.9
		C79.8,136,79.6,136.4,79.2,136.8z M114.9,150.6c0-0.5-0.2-0.7-0.6-0.7c-0.3,0.1-0.4,0.3-0.3,0.7
		C114.3,150.6,114.5,150.6,114.9,150.6z M112.7,127.9c-0.4,0.6-0.4,0.6-0.2,1.2C113,128.6,113,128.6,112.7,127.9z M114.2,126.9
		c-0.1,0-0.1-0.1-0.2-0.1c-0.2,0.2-0.4,0.3-0.7,0.5c0.2,0.2,0.4,0.3,0.7,0.6C114.1,127.5,114.2,127.2,114.2,126.9z M87,144.1
		c0.2,0.9,0.2,0.9,0.6,0.5C87.4,144.5,87.3,144.4,87,144.1z M87.5,169.6c-0.2-0.2-0.3-0.3-0.4-0.4c-0.1,0.1-0.2,0.2-0.2,0.3
		c0,0.1,0.1,0.3,0.2,0.2C87.2,169.8,87.4,169.7,87.5,169.6z M119.2,161.1c0,0.3,0,0.5,0.1,0.8c0.2-0.2,0.4-0.3,0.6-0.5
		C119.6,161.2,119.5,161.2,119.2,161.1z M85.4,170.6c0,0.1,0.1,0.1,0.1,0.2c0.4,0.1,0.5-0.1,0.4-0.6
		C85.7,170.4,85.6,170.5,85.4,170.6z M80.2,153.2c-0.1-0.1-0.3-0.3-0.4-0.5C79.5,153.2,79.6,153.4,80.2,153.2z M83.1,137.4
		c-0.1-0.1-0.2-0.1-0.2-0.2c0,0-0.1,0.1-0.1,0.1c0,0.1,0.1,0.1,0.1,0.2C83,137.5,83,137.5,83.1,137.4z"/>
        <path d="M118.5,113.1c-5,0.2-9.9,0.1-14.9,0.1c0-3.7-0.1-7.3,0-10.9c0-0.3,0.3-0.6,0.5-1.1c0-0.2,0-0.6-0.1-1
		c-0.1,0-0.3-0.1-0.3-0.2c-0.1-0.3-0.1-0.6-0.1-0.8c0-2.1,0-4.2,0-6.4c0-0.3,0-0.7,0-1.1c-0.4,0-0.8-0.1-1.2-0.1
		c-4.9,0-9.8,0-14.7,0c-1.7,0-3.5,0-5.2,0c-0.3,0-0.6,0-1,0c-0.2,0.7-0.4,1.3-0.5,1.7c0.1,0.5,0.3,0.9,0.3,1.2c0,6.1,0,12.2,0,18.4
		c0,0.1,0,0.2-0.1,0.3c-4.9,0-9.8,0-14.9,0c0-2.2,0-4.3,0-6.4c0-2.1,0-4.2,0-6.4c0-2.1,0.1-4.3,0-6.4c-0.1-2.2,0-4.3,0-6.5
		c0-2.1,0-4.2,0-6.4c-0.1-2.1,0.1-4.3,0-6.4c-0.1-2.1,0-4.2,0-6.4c0-2.2,0-4.3,0-6.4c0.7-0.2,13.3-0.3,14.9-0.1c0,6,0,12.1,0,18.2
		c7.5,0,14.9,0,22.4,0c0-0.4,0-0.7,0-1c0-3.1,0-6.2,0-9.3c0-2.5,0-4.9,0-7.4c0-0.1,0-0.2,0-0.5c0.4,0,0.7,0,1.1,0c0.4,0,0.8,0,1.1,0
		c0.4,0,0.8,0,1.2,0c0.4,0,0.7-0.1,1.1,0.2c0.2,0.1,0.6-0.1,1-0.2c0.4,0,0.8,0,1.1,0c0.4,0,0.8,0,1.2,0c0.4,0,0.8,0.1,1.1,0.1
		c0.4,0,0.7,0,1.1-0.1c0.4,0,0.8,0,1.1,0c0.4,0,0.8,0,1.2,0c0.4,0,0.8,0,1.1,0c0.4,0,0.7,0,1.2,0c0,1.5,0,3,0,4.6
		c-1-0.3-1.8-0.7-1.9-1.9c-0.6,0.6-0.6,1.2-0.9,2c0.6-0.3,1-0.2,1.5,0.1c0.5,0.3,0.7,0.6,0.7,1.1c0.2,0,0.4,0.1,0.6,0.1
		c0,1.1,0,2.1,0,3.2c-0.8,0.1-1.5,0.1-2.3,0.2c0.2,0.4,0.3,0.6,0.5,0.9c0.6-0.2,1.1-0.6,1.8-0.3c0.2,0.5,0.3,1,0.1,1.6
		c-0.1,0.4,0,0.8,0,1.3c-0.7,0.2-1.5,0.3-2.3,0.2c-0.5-0.1-0.9,0-1.2,0.4c-0.7-0.1-0.4-0.7-0.6-1.1c-0.4,0-0.7,0.1-0.6,0.6
		c0,0.3,0.2,0.7-0.3,0.9c-0.2-0.2-0.4-0.4-0.6-0.7c-0.2,0.3-0.4,0.6-0.6,0.7c-0.2,0.2-0.6,0.2-0.9,0.3c0,0.7,0.2,0.9,0.9,0.8
		c0.2,0,0.5-0.1,0.7,0c0.5,0.2,0.8,0,1.1-0.3c0.6-0.5,1.1-0.5,1.7-0.1c0.2,0.1,0.3,0.2,0.5,0.2c0.4,0.1,0.7,0.3,1.2,0.5
		c0.2-0.1,0.6-0.3,1.1-0.5c0,0.4,0.1,0.7,0.1,1.1c-0.1,1.9-0.1,3.8-0.2,5.7c0,0.3,0,0.6,0,0.8c0,0.5,0.1,0.9,0.1,1.4
		c0,8.8,0,17.6,0,26.4C118.5,112.2,118.5,112.6,118.5,113.1z M110.5,73c0.7,0.3,1.1,0.5,1.6,0.8c0-0.1,0.1-0.1,0.1-0.2
		c0.3-0.7,0.7-0.9,1.5-0.9c0.7,0,1.2-0.4,1.7-0.9c-0.2-0.1-0.4-0.3-0.6-0.4c-0.6-0.3-0.9-0.7-0.8-1.4c0-0.3-0.1-0.5-0.1-0.8
		c-2-0.4-2-0.4-2.9-0.1c0.6,0.1,1.1,0.1,1.5,0.2c0.3,1.4,0,1.8-1.3,1.9c-0.2,0-0.4,0-0.7,0.1c-0.4,0.1-0.5,0.4-0.3,0.8
		c0.3,0,0.6-0.2,0.8-0.1c0.2,0,0.5,0.2,0.5,0.4c0,0.2-0.2,0.4-0.4,0.6C111.1,73,110.8,73,110.5,73z M113.9,66.7
		c-0.7-0.6-2.4-0.8-3.1-0.3c-0.5,0.4-1,0.4-1.5,0.1c-0.3-0.2-0.7-0.3-1.1-0.5c0.1,0.1,0,0,0,0c-0.3-0.7-0.6-0.8-1.2-0.3
		c-0.4,0.3-0.8,0.7-1.1,1.1c0.3,0.5,0.5,0.6,0.9,0.2c0.2-0.2,0.5-0.3,0.8-0.6c0.1,0.2,0.1,0.3,0.2,0.4c0.2,1.1,0.7,1.2,1.6,0.9
		c0.6-0.2,1.3-0.3,1.9-0.4c0.8-0.2,1.7-0.3,2.5-0.5C113.8,66.9,113.8,66.8,113.9,66.7z M78.5,81.6c-1-0.9-1.9-1.7-2.8-2.6
		c-0.3,0.3-0.5,0.4-0.7,0.7c-0.1,0.2-0.2,0.6-0.1,0.7c0.4,0.5,0.9,1,1.4,1.4c0.5,0.3,1.1,0.5,1.7,0.7C78.1,82.3,78.3,81.9,78.5,81.6
		z M75.4,83.5c0-0.1,0.1-0.2,0.1-0.3c-0.2-0.3-0.5-0.6-0.8-0.9c-0.2,0.3-0.3,0.5-0.4,0.8c-0.8-0.4-1.5-0.8-2.3-1.3
		c0.2,0.7,0.6,1.1,0.9,1.6c0.1,0.2,0.4,0.4,0.2,0.7c-0.1,0.2,0.3,0.6,0.5,0.8c0.2,0.2,0.5,0.3,0.8-0.1c-0.1-0.4-0.6-0.9-0.1-1.3
		C74.7,83.5,75.1,83.5,75.4,83.5z M117.3,77.8c-1.1-0.4-1.9,0.1-2.6,0.5c-0.5,0.3-0.8,0.8-0.5,1.5C115.2,79.1,116.2,78.5,117.3,77.8
		z M88.7,84.1c-0.5-0.3-1-0.7-1.8-0.3c0.6,0.3,1,0.6,1.4,0.9C88.5,84.5,88.6,84.3,88.7,84.1z M96.3,85.3c-0.8,0.4-0.6,0.9-0.6,1.4
		c0,0.3,0.1,0.5,0.5,0.4C96.2,86.6,96.2,86,96.3,85.3z M109.8,63.6c1,0.3,1.2,0.2,1.1-0.5C110,62.9,110,62.9,109.8,63.6z M109.4,73
		c0.4-0.9,0.4-0.9-0.4-1.3C108.7,72.2,109,72.5,109.4,73z M105.8,70.3c0.4-0.1,0.8-0.2,0.7-0.6c-0.1-0.4-0.4-0.5-0.9-0.5
		C105.6,69.6,105.7,69.9,105.8,70.3z M69,87.7c-0.4,0.3-0.5,0.6-0.3,0.9c0.2,0.3,0.5,0.3,0.9,0.1C69.5,88.4,69.3,88,69,87.7z
		 M117,102.3c-0.3,0.4-0.8,0.6-0.5,1.2c0.4-0.2,0.7-0.4,1.1-0.7C117.3,102.6,117.2,102.5,117,102.3z M96.4,83.3
		c-0.1,0.8,0,1,0.8,0.9C97.2,83.7,96.9,83.5,96.4,83.3z M114.9,67.2c0,0.5,0,0.8,0,1.2c0.4-0.2,0.6-0.4,1-0.6
		C115.5,67.6,115.3,67.4,114.9,67.2z M106.5,77.1c-0.3-0.2-0.5-0.4-0.7-0.3c-0.2,0-0.3,0.2-0.4,0.4c0.2,0.1,0.3,0.3,0.5,0.3
		C106,77.4,106.2,77.3,106.5,77.1z M75.2,76.2c0.3,0.9,0.3,0.9,1,0.5C75.9,76.5,75.6,76.4,75.2,76.2z M72.4,85.8
		c0-0.8,0-0.8-0.6-0.8C72,85.2,72.1,85.5,72.4,85.8z M76.4,73.3c0-0.1-0.1-0.2-0.1-0.2c-0.1-0.1-0.2-0.2-0.4-0.2
		c-0.1,0-0.2,0.2-0.2,0.2c0,0.1,0.2,0.3,0.3,0.3C76.1,73.4,76.3,73.3,76.4,73.3z M73.5,63.2c0,0.1,0,0.2,0,0.3
		c0.3,0.3,0.5,0.3,0.9-0.3C73.9,63.3,73.7,63.3,73.5,63.2z M105.2,78.7c-0.4,0.4-0.4,0.4-0.4,0.7c0,0,0.1,0.1,0.2,0.1
		C105,79.3,105.1,79.1,105.2,78.7z M74.2,81.1c-0.1-0.2-0.2-0.4-0.3-0.7C73.4,80.9,73.8,81,74.2,81.1z M85.9,80.9c0,0.1,0,0.2,0,0.2
		c0.2,0,0.4,0,0.6,0c0,0,0-0.1,0-0.1C86.3,81,86.1,81,85.9,80.9z"/>
        <path d="M241.9,196.2c-0.2,1.4-0.3,7.7,0,9.3c9.1,0,18.2,0,27.3,0c0.4,1.2,0.4,9.2,0.1,10.8c-9.1,0-18.2,0-27.4,0
		c0,0.4-0.1,0.6-0.1,0.9c0,1.2,0.1,2.4,0,3.5c-0.2,1.5,0.2,3,0,4.5c0,0.1,0,0.2,0.1,0.4c0.3,0,0.6,0.1,1,0.1c2.2,0,4.3,0,6.5,0
		c0.4,0,0.8,0.2,1.2,0.2c0.2,0,0.5,0,0.7,0c0.4-0.1,0.9-0.2,1.3-0.2c4.3,0,8.7,0,13,0c0.4,0,0.9-0.1,1.1,0.6
		c0.4-0.5,0.9-0.6,1.5-0.6c1,0,2,0,3,0c0.4,1.3,0.5,9.9,0.1,11.1c-14.7,0-29.5,0-44.3,0c0-17.2,0-34.4,0-51.5
		c0.7-0.2,46.8-0.3,48.7-0.1c-0.2,0.3-0.3,0.6-0.4,0.9c-2.1,3.3-4.3,6.5-6.4,9.8c-0.3,0.4-0.5,0.5-1,0.5c-8.4-0.1-16.8-0.1-25.2-0.2
		C242.4,196.2,242.2,196.2,241.9,196.2z M248,209.5c0.5,0.6,1.5-0.1,1.5,1c-0.1,0.1-0.2,0.4-0.3,0.6c0.4,0.1,0.8,0.3,1.1,0.2
		c0.5-0.2,0.8-0.1,1.2,0.2c0.2-0.6,0.4-1.1,0.6-1.6c-0.5-0.7-1.1-0.8-1.8-0.7c-0.2,0-0.5,0.2-0.7,0.2c-0.2,0-0.4-0.1-0.6-0.2
		c0.1-0.2,0.2-0.4,0.3-0.5c0.2-0.2,0.4-0.2,0.7-0.4c-0.4-0.3-0.8-0.6-1.2-0.9C248,207.9,248.6,209,248,209.5z M246.6,208.9
		c-0.3-0.2-0.7,0.5-1.1,0c0.2-0.3,0.6-0.5,0.2-0.9c-0.4-0.4-0.9-0.2-1.4-0.1c0,0.6,0,1.2,0,1.8c0,1.2,0.1,1.3,1.3,1.3
		c0.1,0,0.2,0,0.2,0C246,210.3,246.3,209.6,246.6,208.9z M262.7,190.3c-1.3,0.2-1.7,0.7-1.8,2c0.5-0.1,1-0.3,1.5-0.4
		c0.4-0.1,0.6-0.5,0.5-0.9C262.9,190.8,262.8,190.6,262.7,190.3z M245.7,228.3c0.1,0.3,0.2,0.5,0.4,0.8c0.6-0.1,1.1-0.2,1.7-0.3
		c-0.2-0.8-0.9-0.6-1.3-1C246.2,227.9,246,228.1,245.7,228.3z M244.3,194.9c0.1,0,0.2,0,0.3,0c0.5-0.6,0.2-1.4,0.2-2.1
		c0-0.1-0.2-0.3-0.5-0.5C244.3,193.3,244.3,194.1,244.3,194.9z M230.4,204.3c-0.7,0.1-0.8,0.6-1,1
		C230.4,205.6,230.6,205.4,230.4,204.3z M246.5,226.7c0-0.3,0-0.5,0-0.7c-0.6-0.1-1.1-0.2-1.6,0.4
		C245.5,226.4,246,226.5,246.5,226.7z M261.6,230.5c-0.4,0.1-0.9-0.2-0.9,0.4c0,0.2,0.3,0.6,0.5,0.6
		C261.7,231.5,261.7,231.1,261.6,230.5z M247.1,213.1c-0.6,0.1-0.6,0.4-0.6,0.8c0,0.1,0.2,0.2,0.2,0.2c0.1,0,0.3-0.1,0.3-0.2
		C247.2,213.7,247.1,213.4,247.1,213.1z M261,213.8c0.5-0.3,0.6-0.7,0.6-1.2C261.1,212.8,260.9,213.2,261,213.8z M254.6,214.6
		c0,0,0,0.1-0.1,0.1c0.3,0.2,0.5,0.3,0.9,0.6c0-0.3,0.1-0.5,0.1-0.7C255.2,214.6,254.9,214.6,254.6,214.6z M267.3,215.9
		c0.4,0.2,0.7,0.2,1-0.3C267.8,215.2,267.5,215.5,267.3,215.9z M260.6,214.9c0-0.1-0.1-0.1-0.1-0.2c-0.2,0.1-0.4,0.1-0.6,0.3
		c-0.1,0,0.1,0.3,0.1,0.6C260.3,215.3,260.4,215.1,260.6,214.9z M231.8,188.4c0,0.4,0,0.7,0,1.2C232,189.2,232.4,188.9,231.8,188.4z
		 M261.5,228.5c0.6-0.2,0.7-0.4,0.4-0.9C261.7,227.9,261.7,228.1,261.5,228.5z M250.2,226.6c-0.1,0-0.2,0.1-0.3,0.1
		c0.1,0.2,0.1,0.3,0.2,0.5c0.1,0,0.2-0.1,0.3-0.1C250.4,226.9,250.3,226.8,250.2,226.6z M248.7,194.3c-0.1,0.2-0.2,0.3-0.2,0.4
		c0,0.1,0.1,0.2,0.2,0.2c0.1,0,0.2-0.1,0.3-0.2C249,194.7,248.8,194.6,248.7,194.3z"/>
        <path d="M127.6,85.9c-0.4-0.1-0.7-0.2-0.9-0.4c-0.2-0.1-0.5-0.2-0.7-0.3c-0.1-0.9-0.2-1.8,0.1-2.6c0-0.1,0.1-0.3,0.1-0.5
		c-0.1-1-0.1-2-0.2-3c0-0.5,0-0.9,0.7-1.1c-0.9-1.2-0.8-2.5-0.9-3.8c0-0.2,0.2-0.4,0.3-0.7c0.3,0.2,0.6,0.3,0.9,0.4
		c0.2-0.1,0.4-0.3,0.6-0.4c0.2-0.1,0.3-0.3,0.5-0.5c-0.8-0.5-1.4-0.1-2.1,0c0-3.8,0-7.6,0-11.3c0.7-0.2,42.9-0.3,44.4-0.1
		c0,3.6,0,7.2,0,10.8c-0.2,0-0.4,0.1-0.6,0.1c-5,0-10,0.1-14.9,0.1c-0.6,0-1.1,0-1.4-0.7c-0.3,0.6-0.8,0.7-1.3,0.7
		c-1.9,0-3.7,0-5.6,0c-0.4,0-0.8-0.2-1.4-0.3c-1.2,0.7-2.7,0-4.3,0.4c-0.2,3-0.2,6,0,9.1c0.5,0,1,0.1,1.4,0.1c2.2,0,4.3,0,6.5,0
		c0.7,0,1.5,0,2.1,0.6c1.2-0.9,2.5-0.5,3.8-0.5c0.3,0,0.6,0.3,0.8,0.4c0.3-0.1,0.5-0.4,0.7-0.4c4,0,8,0,12,0c0,0,0.1,0,0.1,0
		c0.4,1.2,0.5,9.5,0.1,10.6c-7.6,0-15.2,0-22.9,0c-0.8-1.6-1.3-2.2-2.1-2.5c0.3,0.9,0.9,1.5,1.3,2.5c-1.3,0-2.5,0-3.8,0
		c-0.3,3.1-0.3,6.1-0.1,9.2c9.9,0,19.8,0,29.7,0c0,3.8,0,7.4,0,11.2c-1.1,0-2.1,0.1-3.2,0.1c-1.9,0-3.8,0-5.7,0
		c-9.6,0-19.3,0-28.9,0c-1,0-2,0-3,0c-0.2,0-0.4,0-0.6,0c-0.4-0.1-0.5-0.3-0.3-0.7c0.2-0.3,0.4-0.6,0.5-0.9c0.1-0.4,0-0.7-0.3-0.9
		c-0.3-0.2-0.5-0.1-0.8,0.1c-0.4,0.2-0.4,0.6-0.2,0.9c0.1,0.2,0.3,0.4,0.4,0.7c0.2,0.4,0.1,0.8-0.4,0.8c-0.6,0.1-1.1,0-1.8,0
		c0-0.3-0.1-0.6-0.1-0.8c0-2.8,0-5.6,0-8.4c0-1.5,0-3,0-4.5c0-0.7,0.1-1.2,0.5-1.8c0.5-0.5,0.4-0.9-0.1-1.4
		c-0.2-0.2-0.4-0.5-0.4-0.8c0-2.6,0-5.2,0-7.8c0-0.4,0.1-0.7,0.5-0.8C127,86.8,127.2,86.4,127.6,85.9z M133,67.9c0-0.1,0-0.2,0-0.3
		c-0.5-0.1-0.7-0.7-1.3-0.7c0-0.1,0-0.3,0-0.5c0.2,0.1,0.2,0.1,0.3,0.2c0.1,0.1,0.2,0.1,0.3,0.2c0.1-0.7,0-0.8-0.9-1
		c-0.1,0.3-0.3,0.5-0.4,0.8c-0.3-0.2-0.6-0.4-1.1-0.6c0,1,0.1,1.9,0.3,2.7c0.5-0.1,0.4-0.5,0.5-0.8c0.1-0.6,0.4-0.7,0.9-0.4
		c0.3,0.2,0.5,0.4,0.8,0.5C132.6,68,132.8,67.9,133,67.9z M131.4,83.8c-0.1,0.3-0.5,0.6-0.2,1.1c0.6-0.2,1.1-0.4,1.7-0.6
		c-0.1-0.5,0-1-0.3-1.2c-0.5-0.4-1.1-0.8-1.9-0.9c-0.1,0.6,0.2,0.7,0.6,0.8c0.3,0.1,0.6,0.3,0.9,0.5c0,0,0,0.2,0,0.3
		C131.9,83.8,131.7,83.8,131.4,83.8z M156.5,104.5c0.2-0.8-0.4-1.2-0.8-1.8c-0.4,0.4-0.7,0.7-0.4,1.3
		C155.6,104.4,155.8,104.8,156.5,104.5z M137.6,73.7c-0.7,0.1-1.1,0.4-1.1,0.9c0,0.7,0.4,1,0.9,1.3c0.4-0.4,0.1-0.7,0-1.1
		C137.5,74.4,137.6,74.1,137.6,73.7z M130,77.6c1.3-0.6,1.4-0.8,0.6-1.5C129.3,76.6,129.3,76.8,130,77.6z M154.5,64.7
		c-0.4,0.4-0.2,0.9-0.1,1.3c0,0.1,0.4,0.3,0.6,0.3c0.1,0,0.3-0.3,0.3-0.5C155.5,65.3,155.4,65.1,154.5,64.7z M146.2,66.7
		c-0.2-0.7-0.4-0.8-1.2-0.8c-0.1,0.4-0.3,0.8-0.4,1.3C145.1,67,145.6,66.9,146.2,66.7z M131.4,64.5c1,0.3,1.8,0.6,2.6,0.8
		c0.1,0,0.3-0.1,0.5-0.2c-0.7-0.3-1.3-0.6-1.9-0.9C132.2,64,131.9,64.2,131.4,64.5z M142.5,65.3c0.1,1.1,0.5,1.3,1.6,0.8
		C143.5,65.8,143,65.6,142.5,65.3z M131.1,98.1c-0.7,0.1-1.2,0.2-1.8,0.4C130.1,98.9,130.1,98.9,131.1,98.1z M128.1,78.5
		c0.2-0.4,0.1-0.6-0.2-0.7c-0.4-0.1-0.6,0.1-0.8,0.6C127.5,78.5,127.8,78.5,128.1,78.5z M159.4,85c0.4,0.1,0.7,0,0.7-0.3
		c0-0.4-0.2-0.7-0.7-0.6C159.4,84.4,159.4,84.7,159.4,85z M168.1,106.1c0.3-0.4,0.3-0.7,0-1c-0.3-0.2-0.5-0.1-0.7,0.3
		C167.6,105.6,167.8,105.8,168.1,106.1z M131.1,75.6c0.4-0.3,0.7-0.5,1.1-0.7C131.4,74.6,131.2,74.7,131.1,75.6z M154.1,107.8
		c-0.1,0-0.2-0.1-0.3-0.1c-0.1,0.2-0.3,0.4-0.3,0.7c0,0.1,0.2,0.3,0.3,0.3c0.1,0,0.3-0.1,0.3-0.2C154.1,108.3,154.1,108,154.1,107.8
		z M134.1,66.6c-0.3-0.2-0.5-0.2-0.7,0.1c0,0.1,0.1,0.3,0.1,0.4c0.2-0.1,0.4-0.2,0.6-0.3C134.1,66.8,134.1,66.7,134.1,66.6z
		 M131.6,78.3c0,0.1,0.1,0.1,0.1,0.2c0.2,0,0.4,0,0.7,0c0-0.3,0-0.5,0-0.9C132,77.9,131.8,78.1,131.6,78.3z M137.6,105.6
		c-0.2-0.1-0.4-0.3-0.5-0.3c-0.1,0-0.2,0.2-0.3,0.3c0.1,0.1,0.2,0.3,0.4,0.3C137.3,106,137.4,105.8,137.6,105.6z M134,73.9
		c0-0.4-0.1-0.7-0.1-1.1C133.3,73.4,133.3,73.4,134,73.9z M146.6,85.1c-0.9-0.1-0.9-0.1-0.7,0.7C146.1,85.6,146.3,85.5,146.6,85.1z
		 M156.8,67.3c0,0.4,0,0.7,0,1C157.3,67.8,157.3,67.8,156.8,67.3z M128.6,104.9c0.5,0.4,0.5,0.4,0.9-0.1
		C129.2,104.8,128.9,104.9,128.6,104.9z M138.4,87.6c-0.1-0.1-0.1-0.1-0.2-0.2c-0.2,0.2-0.4,0.3-0.6,0.5
		C138.1,88.2,138.3,88,138.4,87.6z M141.6,67.5c-0.4,0.3-0.4,0.3,0,0.7C141.6,67.9,141.6,67.7,141.6,67.5z M135.7,83.4
		c0,0.1,0,0.1,0,0.2c0.2,0,0.3,0,0.5-0.1c0-0.1,0-0.1,0-0.2C136.1,83.4,135.9,83.4,135.7,83.4z M151.9,103.1
		c0.3-0.5,0.3-0.7-0.1-0.8c0,0-0.1,0-0.2,0.1C151.7,102.7,151.8,102.8,151.9,103.1z M126.7,74.9c-0.5,0.2-0.5,0.2-0.4,0.7
		C126.5,75.3,126.6,75.1,126.7,74.9z M130.3,80.8c0.2,0.4,0.2,0.4,0.6,0.5C130.7,80.8,130.7,80.8,130.3,80.8z M136,96.4
		c-0.1,0.1-0.2,0.2-0.2,0.2c0,0.4,0.2,0.5,0.8,0.3C136.3,96.7,136.1,96.6,136,96.4z M130.3,63.4c0-0.1-0.1-0.1-0.1-0.2
		c-0.2,0.1-0.3,0.3-0.5,0.4c0,0,0.1,0.1,0.1,0.1C130,63.7,130.1,63.6,130.3,63.4z M128.6,77.5c0.3-0.4,0.3-0.6-0.2-0.7
		C128.5,77,128.5,77.2,128.6,77.5z M134.7,88.8c0-0.1,0-0.1,0-0.2c-0.2,0-0.4,0.1-0.5,0.1c0,0.1,0,0.1,0,0.2
		C134.4,88.8,134.6,88.8,134.7,88.8z M150.4,88.8c0.1,0,0.2-0.1,0.2-0.1c-0.1-0.1-0.1-0.3-0.2-0.4c-0.1,0-0.1,0.1-0.2,0.1
		C150.3,88.4,150.4,88.6,150.4,88.8z"/>
        <path d="M37.8,126c-0.2,0.7-0.3,1.5-0.5,2.4c0.9-0.4,1.7-0.2,2.3-1c-0.4,0-0.7,0-1-0.1c-0.4-0.6,0.2-0.8,0.5-1.2
		c-0.5-0.5-0.4-1.1,0-1.7c0.1-0.3,0.1-0.7,0.1-1c0-0.4,0-0.8,0.5-1.1c0.1,0.2,0.4,0.4,0.4,0.7c0.1,1.1,0.4,2.2,0.1,3.4
		c-0.1,0.5,0.2,1.1,0.4,1.8c-0.5,0.7-1.2,1.5-2,2.5c0.2,0,0.4,0,0.5,0c0.2,0.1,0.5,0.1,0.6,0.3c0.1,0.1-0.1,0.4-0.2,0.6
		c0,0.1-0.2,0.2-0.3,0.3c0.1,0.3,0.3,0.6,0.4,1c-0.5,0.1-0.9,0.1-1.2-0.4c-0.4-0.8-0.4-0.8-1.5-0.6c0.2,0.1,0.4,0.2,0.5,0.3
		c0.1,0.1,0.2,0.3,0.2,0.4c0,0.1-0.2,0.2-0.3,0.3c-0.1,0-0.2,0-0.3,0c-2.3-0.1-4.2,0.9-6,2.1c-1.9,1.2-3.2,2.9-4,4.9
		c-1.2,2.6-1.7,5.4-1.8,8.3c-0.1,3.3,0.2,6.5,1.6,9.6c0.4,0.8,0.8,1.6,1.3,2.3c2,3,4.9,4.7,8.5,5c2.1,0.2,4.1,0.2,6.1-0.3
		c3.5-0.9,6-3,7.4-6.4c0.2-0.6,0.4-1.2,0.7-1.8c0,0,0,0,0.1-0.1c0.1,0.2,0.3,0.5,0.4,0.7c0.2,0.3,0.4,0.7,0.6,1
		c0.1,0.2,0.2,0.3,0.4,0.4c0.6,0.4,2.4-0.6,2.4-1.3c0-0.3-0.1-0.5-0.3-0.8c-0.1-0.2-0.3-0.2-0.4-0.3c-0.5-0.3-1-0.5-1.5-0.9
		c-0.4-0.3-0.7-0.8-1.1-1.2c-0.7,0.6-1.1,1.2-1.1,2c-2.8,0-5.6,0-8.5,0c0-0.4-0.1-0.7-0.1-1c0-2.8,0-5.5,0-8.3c0-0.2,0-0.3,0-0.5
		c0.1-0.5,0.3-0.8,0.8-0.9c0.2,0,0.5,0,0.8,0c7.2,0,14.3,0,21.5,0c0.2,0,0.5,0,0.8,0c0,9.7,0,19.3,0,29.1c-2.3,0.3-4.6,0.2-6.9,0.1
		c-0.6-1.7-1.2-3.3-1.8-5c-0.3,0.2-0.5,0.3-0.7,0.5c-3.5,3.5-8,5-12.8,5.7c-4.3,0.7-8.6,0.6-12.9,0c-4.2-0.7-8.3-1.9-11.8-4.5
		c-3.7-2.7-6.1-6.4-7.5-10.7c-0.7-2.3-1.1-4.7-1.4-7.1c-0.3-2.3-0.2-4.6-0.2-6.9c0.1-1.9,0.5-3.8,0.8-5.6c0.1-0.3,0.4-0.6,0.7-0.9
		c0.3-0.2,0.7-0.3,0.7-0.7c0-0.4,0.2-0.9,0-1.3c-0.3-0.7-0.2-1.2,0.1-1.8c1.2-3,3-5.5,5.4-7.8c-0.1,0.3-0.1,0.5-0.2,0.8
		c0.4,0,0.7,0,1.1,0c0.4-0.6,0.1-1.1-0.1-1.7c1.1-1,2.4-1.9,3.7-2.6c0.4-0.2,0.8-0.4,1.3-0.7c0.5-0.3,1-0.6,1.6,0
		c0.4-1,1.2-1.3,2.1-1.5c1.6-0.4,3.1-0.8,4.7-1.1c0.2,0,0.4-0.1,0.6-0.1c0.7,0,1,0.2,1.1,0.9c0.1,0.8,0.2,1.7-0.4,2.5
		c0.6,0.3,0.8,0.8,0.6,1.5c0.3-0.1,0.5-0.2,0.8-0.3c0.9-0.3,1.4,0.1,1.6,1c0,0.2,0,0.5,0.1,0.8c0.5,0,0.6-0.3,0.7-0.6
		c0.2-0.5,0.3-1,0.5-1.4C37.3,126.2,37.4,125.9,37.8,126z M43.6,169.4c0.2,0.2,0.5,0.4,0.6,0.7c0.2,0.7,0.8,0.9,1.4,1.3
		c0.2-0.2,0.5-0.3,0.7-0.5c0.3,0.1,0.6,0.4,1,0c0.3-0.2,0.7-0.3,1.2-0.5c0.1-1.2-0.8-1.8-1.3-2.7c-1.1,0.1-2.2,0.1-3.2,0.2
		C44.5,168.6,43.8,168.9,43.6,169.4z M19.5,139.9c0.1,0,0.2,0,0.3,0c0.2,0.4,0.5,0.7,0.5,1.1c0,0.3-0.4,0.6-0.6,0.9
		c0.2,0.3,0.5,0.6,0.8,0.9c0.3,0.3,0.2,0.9,0.9,1c-0.2-0.8,0.2-1.4,0.7-1.8c-0.4-0.7-0.1-1.2,0.3-1.8c-0.3,0-0.6,0-0.8,0.1
		c0-0.2,0-0.5,0.1-0.7c0.2-0.3,0.2-0.6,0-1c-0.1-0.3-0.1-0.6-0.2-0.9c0-0.2-0.1-0.3-0.2-0.6c-0.7,0.8-1.3,1.5-1.9,2.2
		c-0.3,0-0.7,0-1.1,0c0,0.6,0,1,0.7,1.3C19.2,140.4,19.3,140.2,19.5,139.9z M26.7,125.2c0.2,0.5,0.4,1.1,0.7,1.4
		c0.4,0.4,0.5,0.8,0.3,1.4c-0.1,0.6,0.2,1.1,0.7,1.3c0.5,0.2,0.8,0,0.9-0.6c0-0.2,0-0.4,0.1-0.6c0.6-0.6,0.4-1.2-0.1-1.8
		c0,0,0-0.1,0.1-0.2c0.3,0.1,0.5,0.3,0.8,0.4c1-0.5,1-0.7,0.4-1.1c-0.2,0.1-0.3,0.2-0.6,0.4c-0.7-0.6-1.4-1.2-2.2-1.9
		C27.4,124.4,27,124.8,26.7,125.2z M30.6,127.9c1.2,0.6,1.6,0.5,2.2-0.5c-0.2-0.3-0.5-0.6-0.7-1c0.1-0.3,0.2-0.6,0.3-1
		c-0.3-0.1-0.5-0.1-0.6-0.1C31.6,126.3,31.4,127.2,30.6,127.9z M47.6,149.3c0,0.4,0,0.8,0,1.1c0,0.4,0.1,0.7,0.5,0.5
		c0.5-0.2,0.7,0.1,0.9,0.3c0.3-0.7-1-1-0.4-1.7C48.2,149.4,47.8,149.4,47.6,149.3z M19.3,130c1.2-0.2,1.8-1.1,2.5-2
		c-0.2-0.2-0.4-0.4-0.7-0.6c-0.2,0.6-0.3,1.1-0.6,1.5C20.2,129.3,19.7,129.6,19.3,130z M24.7,129.1c0.4-0.2,0.8-0.5,0.7-1.1
		c-0.1-0.5-0.4-0.7-0.8-0.7c-0.1,0.3-0.1,0.6-0.2,0.8C24,128.6,24.2,128.9,24.7,129.1z M17.5,135.3c-0.5,0-0.8,0-1.2,0
		c-0.1,0.6,0.2,0.7,0.6,0.7C17.4,136,17.6,135.8,17.5,135.3z M53.9,169.5c-0.4-0.2-0.6-0.4-0.8-0.3c-0.1,0-0.4,0.2-0.4,0.4
		c-0.1,0.3,0.3,0.4,0.5,0.3C53.4,169.9,53.5,169.7,53.9,169.5z M17.9,133.4c0,0,0.1,0.1,0.1,0.1c0.3-0.2,0.7-0.4,1.1-0.6
		c-0.2-0.2-0.4-0.3-0.6-0.4C18.2,132.8,18,133.1,17.9,133.4z M18,137c-0.5,0-0.7,0.2-0.7,0.6c0.1,0.3,0.3,0.4,0.7,0.3
		C18,137.6,18,137.3,18,137z M65.1,163.1c0.5-0.8,0.5-0.8-0.1-1.3C65.1,162.2,65.1,162.6,65.1,163.1z M22.8,153.3
		c-0.1-0.1-0.1-0.1-0.2-0.2c-0.3,0.3-0.6,0.5-1,0.8C22.2,154,22.6,153.8,22.8,153.3z M26.8,130.7c0.4,0.2,0.6,0.3,1,0.4
		c0-0.3,0-0.6-0.1-0.8C27.4,130.4,27.2,130.5,26.8,130.7z M23.3,146.6c-0.2,0.3-0.3,0.6-0.5,1C23.4,147.5,23.6,147.2,23.3,146.6z
		 M16.6,158.7c0.9,0.3,0.9,0.3,0.9-0.4C17.1,158.4,16.9,158.6,16.6,158.7z M19.4,154.8c0.5-0.1,0.8-0.2,1.3-0.3
		C19.8,154.2,19.8,154.2,19.4,154.8z M34,167.5c-0.3-0.2-0.6-0.3-0.9-0.5C33.2,167.6,33.2,167.6,34,167.5z M45.4,153
		c-0.1,0-0.1,0-0.2,0c-0.1,0.2-0.2,0.3-0.2,0.5c0,0.1,0.1,0.2,0.2,0.2c0.1,0,0.2-0.1,0.3-0.2C45.5,153.3,45.4,153.1,45.4,153z
		 M16.8,167.9c0,0.3,0.1,0.5,0.4,0.4c0.1,0,0.2-0.2,0.2-0.3C17.3,167.7,17.1,167.7,16.8,167.9z M30.2,132.9c0.4-0.1,0.5-0.3,0.4-0.6
		C30.2,132.4,30,132.6,30.2,132.9z M31.7,124.1c0.1,0,0.1,0,0.2,0c0-0.1,0.1-0.2,0-0.3c0-0.1-0.2-0.2-0.2-0.3c0,0-0.1,0.1-0.1,0.1
		C31.6,123.7,31.7,123.9,31.7,124.1z M35.5,130.9c-0.1-0.1-0.2-0.2-0.2-0.2c-0.3,0-0.5,0.1-0.3,0.7
		C35.2,131.2,35.3,131.1,35.5,130.9z M12.9,160c0.3-0.1,0.6-0.1,0.9-0.1C13.4,159.5,13.2,159.5,12.9,160z M31.5,128.9
		c0.2,0.5,0.3,0.7,0.7,0.3C31.9,129.1,31.8,129.1,31.5,128.9z M30.2,123.3c-0.5,0.3-0.5,0.3-0.2,0.6
		C30.1,123.8,30.1,123.6,30.2,123.3z M22.8,167.8c-0.1,0-0.1,0.1-0.2,0.1c0.1,0.1,0.2,0.2,0.4,0.3c0,0,0.1-0.1,0.1-0.1
		C23,168,22.9,167.9,22.8,167.8z M38.4,170.7c-0.2-0.1-0.4-0.2-0.6-0.3c0,0.2,0,0.4,0,0.6C38,170.9,38.2,170.9,38.4,170.7z
		 M20.1,158.9c0-0.1,0-0.1,0.1-0.2c-0.2,0-0.4-0.1-0.6-0.1c0,0.1,0,0.1,0,0.2C19.7,158.7,19.9,158.8,20.1,158.9z"/>
        <path d="M45.1,113.2c-0.7,0-1.3,0-1.9,0c-0.3,0-0.5-0.3-0.6-0.6c-0.5-0.9-0.4-1.8,0.1-2.6c-0.1-0.1-0.2-0.3-0.3-0.3
		c-0.6-0.3-0.7-0.9-0.5-1.5c0.2-0.8,0-1.7,0.7-2.4c0.1-0.1-0.1-0.4-0.1-0.7c-0.3,0.3-0.5,0.5-0.8,0.7c-0.2,0.1-0.6,0.1-0.8,0.1
		c-0.4,0-0.7,0.2-0.7,0.6c-0.1,0.4-0.1,0.8-0.2,1.2c0.3,0.1,0.6,0.1,0.8,0.3c0.2,0.2,0.2,0.6,0.2,0.9c0,0.4-0.1,0.8-0.2,1.1
		c-0.3,0.8-0.3,1.6,0.1,2.4c-0.5,0.1-0.9,0-1-0.5c-0.1-0.4-0.3-0.6-0.8-0.5c0.2,0.5,0.4,1,0.6,1.6c-0.7,0-1.4,0-2,0
		c-0.5-0.6-1.1-1.2-1.6-1.8c-0.7,0.4-0.7,0.4-0.5,1.7c-1.5,0.3-3.1,0.2-4.7,0.1c0-1.1-0.1-2,0-3c0-0.3,0.4-0.6,0.7-1
		c0,0-0.1-0.2-0.3-0.2c-0.4-0.1-0.4-0.4-0.4-0.7c0-2.8,0-5.5,0-8.3c0-0.4,0.2-0.6,0.4-0.8c0.6-0.5,0.9-1.1,0.9-1.9
		c-0.2,0.2-0.4,0.4-0.5,0.6c-0.8-0.3-0.9-0.3-0.9-1c0-5.7,0-11.3,0-17c0-0.6,0.1-1.1,0.8-1.3c0.2,0,0.4-0.2,0.5-0.3
		c-0.5-0.7-0.9-0.1-1.3-0.2c0-1.5,0-3.1,0-4.7c-0.4,0-0.7,0-1.1,0c-3.8,0-7.5,0-11.3,0c-0.7,0-1.1-0.2-1.5-0.8
		c-1.6-2.6-3.3-5.3-5-7.9c-0.6-0.9-1.2-1.8-1.9-2.9c0.3,0,0.5-0.1,0.7-0.1c2.6,0,5.1,0,7.7,0c0.4,0,0.7,0,0.9,0.3
		c0.3,0.4,0.7,0.4,1,0c0.3-0.3,0.6-0.4,0.9-0.3c0.7,0.1,1.4,0.2,2.1,0.2c0.3,0,0.7-0.2,1-0.2c4.8,0,9.5,0,14.3,0c0.1,0,0.2,0,0.4,0
		c0,0.2,0.1,0.4,0.2,0.8c0.3-0.3,0.6-0.6,0.9-0.9c6.5,0,13,0,19.6,0c0.1,0.2,0.2,0.4,0.2,0.6c0.3-0.2,0.6-0.5,0.9-0.6
		c0.3-0.1,0.7,0,1.1,0c0,0.9,0,1.7,0,2.6c-0.2,0.1-0.4,0.2-0.7,0.3c0,0.1,0,0.2,0.1,0.3c0.7,0.6,0.8,1.4,0.7,2.3c0,1.1,0,2.3,0,3.4
		c0,0.3-0.1,0.7-0.2,1c0.1,0.4,0.1,0.9,0.2,1.5c-1,0.1-1.9,0.4-2.8-0.2c-0.3-0.2-0.5-0.1-0.8,0c-0.3,0.1-0.6,0.3-0.9,0.3
		c-1.6,0-3.1,0-4.7,0c-0.5,0-1-0.2-1.5-0.3c-0.6,0.1-1.1,0.3-1.7,0.3c-1.3,0-2.6,0-3.9,0c-0.3,0.8-0.6,1.5-0.2,2.3
		c0.1,0.2,0,0.4,0,0.6c0,3.3,0,6.7,0,10c0,0.3,0,0.6-0.1,1c-0.3-0.1-0.6-0.2-0.9-0.3c-0.1,0.7-1,0.8-1,1.6c0.4,0,0.7-0.1,1-0.1
		c0.7,0,1,0.3,1,1c0,1,0,2,0,2.9c0,0.5-0.2,0.9-0.4,1.4c0.1,0.1,0.3,0.1,0.4,0.3c0.1,0.2,0,0.4,0,0.7c0,4.4,0,8.8,0,13.2
		c0,1.1-0.2,2.1-0.6,3c-0.2,0.5-0.3,0.9,0,1.3C45.1,112.4,45.1,112.7,45.1,113.2z M39.8,68.8c1.3,0.1,1.6,0,2.6-0.6
		c0.3-0.2,0.7-0.2,1.1-0.2c0.3,0,0.6,0.3,0.9,0.1c0-0.5-0.3-0.7-0.7-0.7c-0.6,0-1.2-0.3-1.8,0.2c-0.5,0.5-0.6,0.5-1.1,0.1
		c-0.1-0.1-0.3-0.2-0.4-0.3C39.6,67.7,39.8,68.3,39.8,68.8z M36.9,70.5c-0.1-0.3-0.1-0.6-0.2-0.8c-0.1-0.2-0.1-0.5-0.2-0.8
		c0.3,0,0.5-0.1,0.6-0.1c0.2-0.4,0.4-0.7,0.6-1.1c-0.1-0.3-0.2-0.8-0.8-0.8c-0.6,0-1.5,0.7-1.7,1.3c0.3,0.1,0.5,0.1,0.8,0.2
		C36.3,69.1,35.9,70,36.9,70.5z M39.8,105.1c1.1,0.3,1.6,0,1.6-1c0-0.3,0-0.6,0-0.9c0-0.4-0.1-0.7-0.6-0.8
		C40.2,103.2,39.5,103.9,39.8,105.1z M43.1,78.8c0.1,1,0.2,1,1.3,0.8c0.2-0.5,0-0.8-0.4-1.1C43.7,78.5,43.3,78.7,43.1,78.8z
		 M53.6,68.7c-0.1,0.1-0.2,0.1-0.3,0.2c0.1,0.2,0.1,0.6,0.3,0.7c0.5,0.3,1.1,0.6,1.7,0.8c0.1,0,0.3,0,0.4-0.1
		c0.1-0.1,0.1-0.3,0.1-0.3c-0.1-0.1-0.3-0.2-0.5-0.2c-0.2,0-0.5,0.1-0.6,0.1C54.2,69.4,53.9,69,53.6,68.7z M47,70.2
		c-0.2,0.4-0.2,0.6-0.3,0.9c-0.1,0.3-0.2,0.6-0.3,1c0,0.2,0,0.4,0.1,0.5c0.2,0.2,0.5,0.1,0.6-0.2C47.4,71.7,47.5,71.1,47,70.2z
		 M38.5,108.5c0.5-0.6,0.5-0.9,0-1.3c-0.5-0.3-0.5-0.3-0.9,0.2C37.9,107.8,38.2,108.1,38.5,108.5z M35,107.9
		c0.7-1.1,0.6-1.6-0.3-1.9C34.6,106.6,34.3,107.3,35,107.9z M16.6,68.8c0.5,0,1,0,1.5,0.1C17.6,68,17.2,68,16.6,68.8z M37.2,84.3
		c-0.5-0.2-0.8,0.1-0.9,0.4c-0.2,0.4,0,0.6,0.5,0.7C36.9,85.1,37,84.7,37.2,84.3z M33,108.4c-0.1-0.6-0.4-0.7-0.7-0.7
		c-0.4,0.1-0.4,0.4-0.5,0.8C32.3,108.5,32.6,108.4,33,108.4z M43.3,90.5c-0.6,0.1-0.7,0.4-0.7,0.7c0,0.3,0.2,0.5,0.5,0.4
		C43.2,91.3,43.2,91,43.3,90.5z M36.4,95c-0.2,0.2-0.4,0.4-0.6,0.5c0.2,0.3,0.3,0.6,0.7,0.6C36.5,95.7,36.5,95.4,36.4,95z
		 M40.8,81.4c0-0.1,0-0.2,0-0.3c-0.3-0.3-0.7-0.4-1.2,0.2C40.2,81.4,40.5,81.4,40.8,81.4z M34.8,74.3c-0.3,0.3-0.3,0.6-0.1,0.8
		c0.1,0.1,0.2,0,0.3,0c0-0.2,0-0.5-0.1-0.7C35,74.4,34.9,74.4,34.8,74.3z M38.6,98.9c-0.1,0-0.2,0.1-0.2,0.1
		c0.1,0.2,0.2,0.5,0.3,0.7c0,0,0.2-0.1,0.4-0.2C38.9,99.3,38.7,99.1,38.6,98.9z M33.5,101.5c-0.2-0.1-0.4-0.3-0.4-0.3
		c-0.1,0.1-0.2,0.2-0.3,0.3c0.1,0.1,0.2,0.3,0.3,0.2C33.2,101.8,33.3,101.6,33.5,101.5z M42.5,64.2c-0.5,0-0.6,0.2-0.5,0.5
		c0,0.1,0.2,0.1,0.3,0.2C42.3,64.6,42.4,64.4,42.5,64.2z M38.9,70.2c-0.3-0.6-0.5-0.4-0.9,0.1C38.4,70.2,38.6,70.2,38.9,70.2z
		 M34.1,76.3c0.5,0.4,0.5,0.4,0.7,0C34.5,76.3,34.4,76.3,34.1,76.3z M43.2,77.5c0,0,0.1,0,0.1,0c0-0.1,0.1-0.2,0.1-0.3
		c0,0-0.1,0-0.1-0.1C43.3,77.3,43.3,77.4,43.2,77.5z M38.5,67c0,0,0,0.1-0.1,0.1c0.1,0.1,0.3,0.1,0.4,0.2c0-0.1,0.1-0.2,0.1-0.2
		C38.8,67.1,38.6,67,38.5,67z M36.4,90.1c0.3,0.1,0.5,0.1,0.8,0.2C37,89.9,36.9,89.8,36.4,90.1z M32.1,110.4c0,0,0.1-0.1,0.1-0.1
		c-0.1-0.1-0.2-0.3-0.3-0.4c0,0-0.1,0.1-0.1,0.1C31.9,110.1,32,110.3,32.1,110.4z"/>
        <path d="M254.3,135c-3.3-0.1-6.5,0.1-9.9-0.2c-0.1-0.4-0.2-0.8-0.2-1.2c-0.1,0-0.3-0.1-0.4-0.1c-1-0.2-1.1-0.3-1.1-1.3
		c0-2.6,0-5.3,0-7.9c0-0.2,0-0.5,0-0.8c0.3,0,0.5-0.1,0.8-0.1c5,0,10,0,15,0c0.4,0,0.8-0.1,1,0.4c0.5-0.3,1-0.6,1.7-0.4
		c0.3,0.5,0.3,1.1,0.3,1.7c-0.1,0.4,0,0.6,0.6,0.6c0.1-0.4,0.4-0.7,0.4-1.1c0-0.4-0.2-0.7-0.3-1.1c0.8-0.2,26.8-0.3,27.9-0.1
		c0,3.8,0,7.6,0,11.4c-0.2,0-0.5,0-0.7,0c-2.3,0-4.7,0-7,0.1c-0.7,0-1.1-0.1-1.5-0.7c-0.2-0.3-0.5-0.6-0.8-1
		c-0.3-0.3-0.6-0.4-1.1-0.1c0.3,0.2,0.5,0.4,0.8,0.6c0,0.3,0,0.7,0,1.1c-0.6,0-1.2,0-1.9,0c0.2-0.5,0.5-0.8,0.5-1.2
		c0.1-0.4,0-0.9-0.3-1.2c-0.8,0.1-1.2,0.6-1.2,1.4c0,0.3-0.1,0.7-0.2,1.1c-0.9,0-1.7,0-2.6,0c-0.1,0.4-0.2,0.7-0.3,1.1
		c-0.7,0-1.5,0-2.4,0c0.3,0.6,0.7,0.8,1,1c0.1-0.1,0.3-0.2,0.4-0.2c0.7-0.4,1.1-0.2,1.2,0.6c0.1,0.7,0,1.3,0,2c0,0.9,0,1.8,0,2.8
		c0,0.4,0,0.8-0.5,1c-0.1,0-0.2,0.1-0.2,0.2c0,0.9-0.8,1.1-1.4,1.4c-0.3,0.1-0.5,0.4-0.8,0.6c0.1,0.3,0.1,0.6,0.3,1
		c-0.4-0.1-0.7-0.2-1-0.3c-0.8-0.4-1.6-0.1-2.4,0c-0.1,0-0.3,0.1-0.3,0.2c-0.3,0.7-0.9,1-1.5,1.3c-0.7,0.4-0.7,0.4-0.3,1.2
		c0.2,0.4,0.3,0.8,0.4,1.3c0.1,0.7,0.2,0.8,1,0.8c1.1-0.1,2.2-0.3,3.2-0.7c0.3-0.1,0.6-0.1,0.8-0.2c0.5-0.2,0.9-0.1,1.1,0.4
		c0.4,0.6,0.9,0.9,1.7,1c0,1.6,0,3.2,0,4.8c0,1.6-0.1,3.1-0.1,4.7c0,1.6,0.1,3.2,0.1,4.7c0,1.6,0,3.2,0,4.8c0,1.6,0,3.2,0,4.8
		c-5,0.1-9.9-0.1-14.8,0c0-7.5,0-15,0-22.4c0.6,0,0.5,0.5,0.5,0.8c0,0.6,0.1,1,0.5,1.5c0.5,0.5,1.2,0.5,1.4-0.2
		c0.2-0.6,0.5-1.3,0.7-1.9c0.1-0.3,0-0.6-0.2-0.8c-0.4-0.3-0.7-0.6-1.1-0.9c-0.9-0.6-1-0.6-1.8,0.1c0-5.3,0-10.6,0-15.8
		c-0.6-0.4-1.1-0.6-1.5-1c-1.1-0.9-2-0.9-2.9,0.3C254.5,134.7,254.4,134.8,254.3,135z M245,126.8c0.2,1.3,1.1,2,2.3,2
		c0.4,0,0.8,0,1.2,0c0.7,0,0.9-0.2,1-0.9c0.2-0.9-0.1-1.6-0.3-2.4c0-0.1-0.2-0.3-0.3-0.4c-0.8-0.4-1.6-0.7-2.4-0.2
		c-0.5,0.3-0.9,0.5-1.4,0.7c-0.2-0.2-0.4-0.4-0.6-0.6C244.1,126.1,244,126.5,245,126.8z M262.9,128.7c-0.8,0.2-0.7,0.9-1.1,1.3
		c0.8,0.5,1.4,1.1,1.3,2.1c0,0.2,0.2,0.4,0.3,0.5c0.3,0.2,0.6,0.4,0.9,0.6c0.3-0.4,0.6-0.8,0.8-1.2c-0.4-0.4-0.8-0.8-1.3-1.1
		c-0.6-0.4-0.9-0.8-0.9-1.5C263,129.2,262.9,129,262.9,128.7z M270.7,132.5c-0.5-0.5-0.9-1-1.3-1.4c-0.5,0.8-1,1.5-1.4,2.1
		c-0.5,0.1-0.9,0.3-1.3,0.4c0,0.1,0,0.1,0,0.2c0.8,0.1,1.6,0.7,2.3,0c0-0.5-0.3-1,0.2-1.4C269.7,132.3,270,133,270.7,132.5z
		 M260,144.5c0.5,0.3,0.6,0.7,0.4,1.1c-0.1,0.1-0.1,0.3-0.1,0.5c0,0.5,0.3,0.6,0.7,0.6c0.3,0.1,0.6-0.2,0.6-0.5
		c0-0.4-0.1-0.8-0.3-1.1c-0.3-0.5-0.3-0.9,0.1-1.3c0.1-0.2,0.2-0.4,0.3-0.7C260.7,143.2,260.5,143.9,260,144.5z M268.4,162.5
		c-1,1-1,1.8,0,2.6C268.5,164.2,268.8,163.4,268.4,162.5z M263.1,145.7c0.5,0.2,0.9,0.3,1.2-0.1c0.1-0.1,0.1-0.5-0.1-0.7
		c-0.3-0.4-0.7-0.4-1.2-0.2C263.1,145.1,263.1,145.4,263.1,145.7z M282.5,131c0.5-0.5,0.5-1.1,0.1-1.4c-0.3-0.2-0.5-0.1-0.7,0.2
		C281.6,130.2,281.8,130.7,282.5,131z M261.5,137.2c-0.5-0.6-0.9-1-1.6-0.7C259.9,137.3,260.4,137.5,261.5,137.2z M265,171
		c-0.2-0.2-0.4-0.4-0.8-0.6c-0.2,0.4-0.3,0.7-0.5,1C264.3,171.5,264.7,171.5,265,171z M267.5,126.4c0.1,0,0.1,0.1,0.2,0.1
		c0.2-0.2,0.4-0.3,0.5-0.6c0.1-0.1-0.1-0.3-0.2-0.5c-0.2,0.1-0.4,0.1-0.5,0.3C267.4,125.9,267.5,126.2,267.5,126.4z M259.6,155.9
		c-0.2,0.4-0.3,0.6-0.5,0.9c0.6,0.3,0.8,0,1-0.3C259.9,156.3,259.8,156.2,259.6,155.9z M261.1,150.7c0.4-0.1,0.6,0,0.8-0.1
		c0.1-0.1,0.1-0.3,0.1-0.5c-0.2,0-0.4,0-0.5,0C261.4,150.2,261.3,150.4,261.1,150.7z M251.1,134.6c0.1,0,0.2,0.1,0.3,0.1
		c0.2-0.2,0.3-0.3,0.5-0.5c-0.2-0.2-0.4-0.3-0.7-0.5C251.2,134.1,251.1,134.3,251.1,134.6z M271.3,124.9c0.1-0.3,0.2-0.5,0.3-0.8
		c-0.3,0.1-0.5,0.1-0.8,0.2C270.9,124.5,271,124.6,271.3,124.9z M275.4,132.7c-0.1,0.3-0.3,0.5-0.4,0.8c0.1,0,0.1,0.1,0.2,0.1
		C275.5,133.4,275.7,133.2,275.4,132.7z M253.1,133.4c0-0.1,0-0.1-0.1-0.2c-0.2,0-0.4,0-0.7,0c0,0.2,0.1,0.4,0.1,0.7
		C252.8,133.7,252.9,133.5,253.1,133.4z M264.6,129.3c-0.2,0.2-0.4,0.3-0.6,0.4c-0.1,0.1-0.1,0.2-0.2,0.4
		C264.3,130,264.7,129.9,264.6,129.3z M269.4,129.8c0.2-0.3,0.3-0.5,0.5-0.9c-0.4,0.2-0.6,0.3-1.1,0.4
		C269.1,129.5,269.2,129.6,269.4,129.8z M266.8,151.6c-0.4,0.5-0.4,0.5,0,0.8c0-0.1,0.1-0.2,0.1-0.3
		C266.9,152,266.9,151.8,266.8,151.6z M244,132.4c-0.1-0.1-0.1-0.1-0.2-0.2c-0.1,0.1-0.2,0.3-0.3,0.4c0,0,0.1,0.1,0.1,0.1
		C243.8,132.7,243.9,132.5,244,132.4z"/>
        <path d="M146.1,185.2c0.1-0.1,0.2-0.1,0.3-0.1c1.3,0,2.6,0.1,3.9,0.1c0.2,0,0.4,0.1,0.6,0.1c3.2-0.3,6.5-0.1,9.7-0.1
		c0.1,0,0.1,0,0.2,0.1c0.2,0.7,0.3,50.5,0,51.6c-0.3,0-0.7,0.1-1,0.1c-4.2,0-8.4,0-12.7,0c-1.1,0-1.2-0.1-1.2-1.1
		c0-4.9,0-9.9,0-14.8c0-0.3,0.1-0.7,0.1-1c0-0.3,0.1-0.6,0-0.9c0-0.7-0.2-1.4-0.2-2.1c0-4-0.1-8.1,0-12.1c0-1.5-0.1-2.9,0-4.4
		c0.1-1.5,0-3,0-4.6c0-1.5,0-3,0-4.5c0-1.5,0-3,0-4.5C145.9,186.3,146,185.8,146.1,185.2z M151.4,202.3c0.5,0.3,1.9,0.8,2,0.6
		c0.2-0.4,0.4-0.8,0.5-1.3c0-0.1,0.1-0.2,0.1-0.3c0-0.3-0.2-0.5-0.4-0.5C152.8,201.2,151.9,201.5,151.4,202.3z M153.7,233.1
		c-0.4,0.1-0.7,0.1-1,0.2c0.2,0.5,0.3,0.8,0.9,0.7C153.6,233.7,153.7,233.5,153.7,233.1z M154.6,203.7c0.4-0.3,0.8-0.6,0.4-1.1
		C154.5,202.8,154.2,203.1,154.6,203.7z M151.7,233.8c0.2-0.5,0.1-0.7-0.3-0.7c-0.1,0-0.2,0.2-0.4,0.4
		C151.3,233.6,151.5,233.7,151.7,233.8z M153,192.9c0,0.3,0,0.6-0.1,1C153.5,193.5,153.7,193.3,153,192.9z M155.6,231.9
		c0,0-0.1,0-0.1,0c0,0.4,0,0.7,0,1.1c0,0,0.1,0,0.1,0C155.6,232.6,155.6,232.2,155.6,231.9z"/>
        <path d="M10.1,236.7c0-17.2,0-34.3,0-51.6c0.4,0,0.7-0.1,1-0.1c4.2,0,8.3,0,12.5,0c1.4,0,1.4,0,1.4,1.4c0,6.6,0,13.2,0,19.8
		c0,0.8,0.1,1.6,0,2.5c0,0.4-0.2,0.9-0.3,1.4c0.1,0.3,0.3,0.7,0.3,1.2c0,2,0,3.9,0,5.9c0,1.3-0.6,1.7-1.7,1.7c-0.2,0-0.4,0-0.6,0
		c-0.6,0.1-0.7,0.3-0.4,0.9c0.1,0.2,0.2,0.5,0.1,0.7c-0.3,0.5-0.1,0.8,0.3,1.1c0.2,0.1,0.3,0.3,0.5,0.6c-0.3,0.1-0.5,0.1-0.7,0.1
		c0.1,1.2,0.1,1.2,0.6,1.9c0.2-0.2,0.4-0.4,0.5-0.6c0.1-0.2,0.1-0.5,0.2-0.7c0.2-0.5,0-0.9-0.3-1.3c-0.7-0.7-0.6-0.9,0.2-1.4
		c0.4-0.2,0.8-0.5,1.2-0.8c0,3.2,0,6.3,0,9.5c-0.2,0.1-0.4,0.3-0.7,0.5c0.8,0.3,0.9,0.9,0.7,1.6c-0.1,0.2-0.1,0.4-0.1,0.5
		c0.3,0.7,0.2,1.4,0.2,2.2c0,0.4-0.1,0.8-0.5,1c0.2,0.6,0.7,1,0.5,1.6c-0.1,0.6-0.2,0.7-0.8,0.7c-0.7,0-1.3,0-2,0
		c-0.6,0-0.9-0.2-1-0.8c-0.1-0.3-0.2-0.7-0.7-0.7c-0.2,0.3-0.5,0.7-0.8,1.1c-0.2,0.3-0.4,0.4-0.7,0.4c-2.9,0-5.8,0-8.7,0
		C10.2,236.8,10.2,236.7,10.1,236.7z M21.3,228.9c-0.1,0.4-0.3,0.7-0.4,1.1c0.3,0.2,0.5,0.3,0.8,0.4c0.7,0.4,0.7,0.5,0.5,1.2
		c-0.1,0.1,0,0.3,0,0.7c0.4-0.5,0.7-0.9,0.9-1.2c-0.2-0.2-0.3-0.4-0.4-0.6c-0.1-0.2-0.1-0.5-0.1-0.7C22.3,229.1,22.1,229,21.3,228.9
		z M23.6,228.3c-0.9-0.4-0.9-0.4-1.3,0.7C22.8,228.7,23.1,228.5,23.6,228.3z M18.6,200.1c-0.2,0.8-0.2,0.8,0.5,0.6
		C18.9,200.5,18.7,200.3,18.6,200.1z M16.2,228c0.2-0.1,0.4-0.2,0.7-0.5c-0.4-0.1-0.7-0.2-0.8-0.2C15.8,227.5,15.9,227.8,16.2,228z
		 M12.8,230.2c-0.2-0.3-0.3-0.4-0.6-0.1c-0.1,0.1-0.1,0.3,0,0.3C12.5,230.6,12.7,230.5,12.8,230.2z M20.8,212.6
		c-0.4,0-0.6,0.1-0.9,0.1c0.3,0.3,0.4,0.4,0.7,0.6C20.6,213.1,20.7,212.9,20.8,212.6z M23,216.4c-0.6-0.2-0.6-0.2-0.7,0.3
		C22.5,216.6,22.7,216.5,23,216.4z M16.8,224.6c0-0.1,0-0.1,0-0.2c-0.2,0-0.4,0.1-0.6,0.1c0,0,0,0.1,0,0.1
		C16.4,224.6,16.6,224.6,16.8,224.6z"/>
        <path d="M46.6,130.1c-0.3-0.3-0.5-0.5-0.3-1c0.1-0.3-0.5-0.9-0.8-0.9c-0.2,0-0.4,0.2-0.4,0.4c-0.2,0.6-0.5,1.2-0.7,1.8
		c-0.1,0.5-0.2,1-0.3,1.5c-0.1,0.4,0,0.9-0.6,1.3c-0.1-0.3-0.1-0.6-0.2-0.8c0-0.7-0.3-1.3-0.9-1.8c-0.5-0.4-0.4-0.6,0.2-0.8
		c0.6-0.2,0.7-0.6,0.3-1.1c-0.1-0.2-0.3-0.3-0.5-0.5c-0.5-0.5-0.8-1-0.6-1.8c0.4-0.2,1-0.4,1.5-0.6c0.7-0.3,1.6-0.4,2.1-1.1
		c0.4-0.5,0.9-0.8,1.6-0.6c0.1,0,0.2-0.1,0.5-0.3c-0.6-0.2-1-0.4-1.5-0.5c0-0.3,0-0.6-0.1-0.9c1.8,0.2,3.4,0.6,5,1.1
		c3.6,1.1,6.9,2.7,9.6,5.4c2.5,2.5,4.1,5.4,4.9,8.8c0.2,0.9,0.4,1.7,0.6,2.7c-0.4,0-0.8,0.1-1.1,0.1c-1.6,0-3.1-0.1-4.7-0.1
		c-1.9,0-3.8,0.1-5.7,0.1c-1.5,0-3,0-4.5,0c-0.8,0-0.9,0-1.1-0.8c-0.7-2.4-2.1-4.2-4.3-5.4c-0.1-0.1-0.2-0.1-0.3-0.2
		c-0.1-0.1-0.1-0.3-0.1-0.4c0.1-0.1,0.3-0.2,0.5-0.2c0.4,0.2,0.8,0.4,1.3,0.7c0.1-0.2,0.4-0.4,0.4-0.6c0-0.6,0-1.2-0.2-1.8
		c-0.3-0.8-0.3-0.8,0.3-1.3C46.4,130.3,46.5,130.2,46.6,130.1z M49.4,125.3c-0.3-0.4-0.5-0.6-0.9-0.4c-0.4,0.2-0.6,0.5-0.4,1
		c0.2,0.8,0,1.4-0.4,2.1c-0.4,0.7-0.5,1.4-0.1,2.2c0.2,0.3,0.4,0.5,0.7,0.5c0.9,0,1.6-1.1,1.1-1.9c-0.3-0.5-0.2-0.8-0.1-1.2
		c0-0.3,0.2-0.7,0-1C49,126,49.1,125.6,49.4,125.3z M51.1,130.5c-0.7,0.3-0.7,1-1.1,1.4c-0.4,0.4-0.9,0.8-1.3,1.2
		c0.5,0.2,1,0.3,1.5,0.5C50.5,132.5,51.4,131.7,51.1,130.5z M53.9,128.2c0.6-0.4,1-0.7,1.1-1.4c0.1-0.3,0.1-0.7-0.4-0.8
		c-0.4-0.1-0.7,0.2-0.8,0.6C53.7,127,53.6,127.5,53.9,128.2z M54.1,130.7c-0.3,0.4-0.6,0.6-0.6,0.8c-0.1,0.2-0.1,0.6,0.1,0.8
		c0.1,0.1,0.6,0.2,0.7,0.1c0.2-0.1,0.3-0.5,0.3-0.7C54.5,131.4,54.3,131.1,54.1,130.7z M57.2,131.9c-0.6-0.6-0.8-0.6-1.5-0.2
		c-0.3,0.2-0.4,0.4-0.1,0.7C56.1,132.3,56.6,132.1,57.2,131.9z M51.2,125.6c0.4,0,0.6-0.1,0.8-0.1c0.1-0.9,0.1-0.9-0.8-1.1
		C51.2,124.7,51.2,125.1,51.2,125.6z M46.6,126.4c-0.2-0.2-0.4-0.4-0.6-0.6C45.9,126.3,46.1,126.5,46.6,126.4z M57.5,135.4
		c-0.1-0.5-0.3-0.8-0.6-0.6c-0.1,0-0.2,0.3-0.2,0.4C56.9,135.2,57.1,135.3,57.5,135.4z M49,135.1c-0.3,0.3-0.4,0.5,0,0.7
		C49,135.6,49,135.4,49,135.1z"/>
        <path d="M44.8,122.2c0,0.2-0.1,0.3-0.1,0.5c-0.4-0.1-0.7-0.2-1.1-0.3c-0.2,0.3-0.3,0.5-0.5,0.8c-0.5,0.6-1.1,0.7-1.6,0.1
		c-0.3-0.4-0.6-0.8-0.9-1.2c0-0.1,0.1-0.1,0.1-0.2c0.3,0.1,0.6,0.1,0.9,0.3c0.4,0.2,0.7,0.2,1,0c0.2-0.1,0.5-0.2,0.7-0.1
		C43.7,122,44.2,122.1,44.8,122.2z"/>
        <path d="M240.8,138.3c-0.6,0.4-0.9-0.1-1.3-0.2c-0.4,0-0.6,0.7-1.2,0.2c0.3-0.5,0.7-0.9,1.3-0.9
		C240.2,137.4,240.6,137.8,240.8,138.3z"/>
        <path d="M41.8,131.6c0,0.5,0,0.9,0,1.3c-0.4,0.2-0.6,0.1-0.8-0.3C40.8,132.1,41.2,131.9,41.8,131.6z"/>
        <path d="M117.6,75.3c0.3-0.2,0.5-0.3,0.7,0.1c0,0.1,0,0.3-0.1,0.3C117.9,75.8,117.7,75.7,117.6,75.3z"/>
        <path d="M242.9,133.8c0,0.3,0.1,0.7,0.1,1C242.6,134.5,242.6,134.5,242.9,133.8z"/>
    </g>
</svg>
